<svg width="29" height="25" viewBox="0 0 29 25" fill="none" xmlns="http://www.w3.org/2000/svg">
<path d="M27.5 6.675C27.3103 6.46212 27.0777 6.29189 26.8174 6.17554C26.5571 6.05918 26.2751 5.99935 25.99 6H20C20 4.4087 19.3678 2.88258 18.2426 1.75736C17.1174 0.632141 15.5913 0 14 0C12.4087 0 10.8825 0.632141 9.75733 1.75736C8.63211 2.88258 7.99997 4.4087 7.99997 6H2.00997C1.72655 6.00076 1.44647 6.06127 1.18801 6.17758C0.929545 6.29389 0.698509 6.46338 0.50997 6.675C0.323005 6.88583 0.182704 7.1338 0.0982605 7.40264C0.0138169 7.67148 -0.0128629 7.95513 0.0199698 8.235L1.80247 23.235C1.86028 23.7237 2.09626 24.174 2.46525 24.4996C2.83425 24.8253 3.31035 25.0034 3.80247 25H24.2087C24.7008 25.0034 25.1769 24.8253 25.5459 24.4996C25.9149 24.174 26.1509 23.7237 26.2087 23.235L27.9912 8.235C28.0239 7.95504 27.997 7.67134 27.9123 7.40249C27.8277 7.13364 27.6872 6.88573 27.5 6.675ZM14 2C15.0608 2 16.0783 2.42143 16.8284 3.17157C17.5785 3.92172 18 4.93913 18 6H9.99997C9.99997 4.93913 10.4214 3.92172 11.1715 3.17157C11.9217 2.42143 12.9391 2 14 2ZM24.22 23C24.2163 23.0013 24.2123 23.0013 24.2087 23H3.78122L2.00997 8H7.99997V11C7.99997 11.2652 8.10533 11.5196 8.29286 11.7071C8.4804 11.8946 8.73475 12 8.99997 12C9.26519 12 9.51954 11.8946 9.70708 11.7071C9.89461 11.5196 9.99997 11.2652 9.99997 11V8H18V11C18 11.2652 18.1053 11.5196 18.2929 11.7071C18.4804 11.8946 18.7348 12 19 12C19.2652 12 19.5195 11.8946 19.7071 11.7071C19.8946 11.5196 20 11.2652 20 11V8H26L24.22 23Z" fill="white"/>
</svg>
