<svg width="42" height="42" viewBox="0 0 42 42" fill="none" xmlns="http://www.w3.org/2000/svg">
<path d="M36.4448 9.65836C36.3216 9.51093 36.1676 9.39234 35.9935 9.31098C35.8194 9.22962 35.6296 9.18747 35.4375 9.1875H8.97094L8.16867 4.78078C8.05879 4.17594 7.74011 3.62885 7.2682 3.23489C6.79628 2.84093 6.20107 2.62509 5.58633 2.625H2.625C2.2769 2.625 1.94306 2.76328 1.69692 3.00942C1.45078 3.25556 1.3125 3.5894 1.3125 3.9375C1.3125 4.2856 1.45078 4.61944 1.69692 4.86558C1.94306 5.11172 2.2769 5.25 2.625 5.25H5.57812L9.77156 28.2663C9.89509 28.9489 10.1967 29.5868 10.646 30.1153C10.0259 30.6945 9.57838 31.4341 9.35297 32.2521C9.12756 33.0701 9.13311 33.9345 9.369 34.7496C9.60489 35.5646 10.0619 36.2984 10.6894 36.8695C11.3168 37.4407 12.0902 37.8269 12.9238 37.9854C13.7574 38.1438 14.6185 38.0683 15.4118 37.7672C16.2051 37.4661 16.8994 36.9512 17.4179 36.2796C17.9364 35.6079 18.2588 34.8058 18.3492 33.9622C18.4397 33.1185 18.2947 32.2663 17.9304 31.5H25.3821C25.0885 32.1147 24.9365 32.7875 24.9375 33.4688C24.9375 34.3773 25.2069 35.2655 25.7117 36.0209C26.2165 36.7763 26.9339 37.3651 27.7733 37.7128C28.6127 38.0605 29.5363 38.1515 30.4274 37.9742C31.3185 37.797 32.1371 37.3595 32.7795 36.717C33.422 36.0746 33.8595 35.256 34.0367 34.3649C34.214 33.4738 34.123 32.5502 33.7753 31.7108C33.4276 30.8714 32.8388 30.154 32.0834 29.6492C31.328 29.1444 30.4398 28.875 29.5312 28.875H13.6451C13.3377 28.875 13.0401 28.767 12.8041 28.5701C12.5682 28.3731 12.4088 28.0995 12.3539 27.7971L11.8338 24.9375H30.8651C31.7872 24.9374 32.68 24.6136 33.3879 24.0227C34.0957 23.4317 34.5738 22.6111 34.7386 21.7038L36.7336 10.7346C36.7674 10.545 36.759 10.3503 36.7091 10.1643C36.6592 9.97832 36.569 9.80558 36.4448 9.65836ZM15.75 33.4688C15.75 33.8581 15.6345 34.2388 15.4182 34.5625C15.2019 34.8863 14.8944 35.1386 14.5347 35.2876C14.1749 35.4366 13.7791 35.4756 13.3972 35.3997C13.0153 35.3237 12.6645 35.1362 12.3891 34.8609C12.1138 34.5855 11.9263 34.2347 11.8503 33.8528C11.7744 33.4709 11.8134 33.0751 11.9624 32.7153C12.1114 32.3556 12.3637 32.0481 12.6875 31.8318C13.0112 31.6155 13.3919 31.5 13.7812 31.5C14.3034 31.5 14.8042 31.7074 15.1734 32.0766C15.5426 32.4458 15.75 32.9466 15.75 33.4688ZM31.5 33.4688C31.5 33.8581 31.3845 34.2388 31.1682 34.5625C30.9519 34.8863 30.6444 35.1386 30.2847 35.2876C29.9249 35.4366 29.5291 35.4756 29.1472 35.3997C28.7653 35.3237 28.4145 35.1362 28.1391 34.8609C27.8638 34.5855 27.6763 34.2347 27.6003 33.8528C27.5244 33.4709 27.5634 33.0751 27.7124 32.7153C27.8614 32.3556 28.1137 32.0481 28.4375 31.8318C28.7612 31.6155 29.1419 31.5 29.5312 31.5C30.0534 31.5 30.5542 31.7074 30.9234 32.0766C31.2926 32.4458 31.5 32.9466 31.5 33.4688ZM32.1562 21.2346C32.1012 21.5379 31.9411 21.8121 31.7041 22.0091C31.4671 22.2062 31.1684 22.3136 30.8602 22.3125H11.3564L9.44836 11.8125H33.8641L32.1562 21.2346Z" fill="white"/>
</svg>
