<svg width="30" height="23" viewBox="0 0 30 23" fill="none" xmlns="http://www.w3.org/2000/svg">
<path d="M28.4099 3.53003L25.4099 0.585026C25.0351 0.211763 24.5277 0.00219727 23.9987 0.00219727C23.4697 0.00219727 22.9623 0.211763 22.5874 0.585026L10.9999 12L10.9862 11.9863L6.40619 7.57753C6.03043 7.20564 5.5227 6.99766 4.99402 6.99907C4.46534 7.00047 3.95873 7.21115 3.58494 7.58503L0.584943 10.585C0.210536 10.96 0.000244141 11.4683 0.000244141 11.9982C0.000244141 12.5281 0.210536 13.0363 0.584943 13.4113L9.53744 22.4113C9.72317 22.597 9.94366 22.7444 10.1863 22.8449C10.429 22.9455 10.6891 22.9972 10.9518 22.9972C11.2145 22.9972 11.4746 22.9455 11.7173 22.8449C11.96 22.7444 12.1805 22.597 12.3662 22.4113L28.4162 6.36378C28.6023 6.17755 28.7498 5.95641 28.8503 5.71305C28.9507 5.46968 29.0021 5.20888 29.0015 4.9456C29.0009 4.68232 28.9484 4.42175 28.8469 4.17883C28.7453 3.93591 28.5969 3.71543 28.4099 3.53003ZM10.9524 21L1.99994 12L4.99994 9.00003L5.01369 9.01378L9.59369 13.4225C9.96821 13.7935 10.474 14.0016 11.0012 14.0016C11.5283 14.0016 12.0342 13.7935 12.4087 13.4225L24.0074 2.00003L26.9999 4.95003L10.9524 21Z" fill="white"/>
</svg>
