<svg width="42" height="42" viewBox="0 0 42 42" fill="none" xmlns="http://www.w3.org/2000/svg">
<path d="M19.7274 3.62354C16.3527 3.62354 13.0539 4.62423 10.248 6.49908C7.44205 8.37394 5.2551 11.0387 3.96368 14.1565C2.67226 17.2743 2.33437 20.705 2.99273 24.0148C3.65109 27.3246 5.27614 30.3648 7.66237 32.751C10.0486 35.1373 13.0888 36.7623 16.3987 37.4207C19.7085 38.079 23.1391 37.7411 26.2569 36.4497C29.3747 35.1583 32.0395 32.9714 33.9143 30.1655C35.7892 27.3595 36.7899 24.0607 36.7899 20.686C36.7851 16.1622 34.9859 11.8251 31.7871 8.6263C28.5883 5.4275 24.2512 3.62831 19.7274 3.62354ZM10.8811 32.0884C11.8306 30.6034 13.1386 29.3814 14.6846 28.5349C16.2306 27.6884 17.9648 27.2447 19.7274 27.2447C21.4899 27.2447 23.2241 27.6884 24.7701 28.5349C26.3161 29.3814 27.6241 30.6034 28.5736 32.0884C26.0443 34.0555 22.9316 35.1234 19.7274 35.1234C16.5232 35.1234 13.4104 34.0555 10.8811 32.0884ZM14.4774 19.3735C14.4774 18.3352 14.7853 17.3202 15.3622 16.4568C15.939 15.5934 16.759 14.9205 17.7183 14.5232C18.6776 14.1258 19.7332 14.0218 20.7516 14.2244C21.77 14.427 22.7055 14.927 23.4397 15.6612C24.1739 16.3954 24.6739 17.3309 24.8765 18.3493C25.0791 19.3677 24.9751 20.4233 24.5777 21.3826C24.1804 22.3419 23.5075 23.1619 22.6441 23.7388C21.7808 24.3156 20.7657 24.6235 19.7274 24.6235C18.335 24.6235 16.9996 24.0704 16.0151 23.0858C15.0305 22.1013 14.4774 20.7659 14.4774 19.3735ZM30.5161 30.2689C29.0523 28.1477 26.994 26.5067 24.6 25.5521C25.886 24.5393 26.8243 23.1509 27.2846 21.58C27.7449 20.0091 27.7043 18.3339 27.1683 16.7872C26.6323 15.2405 25.6277 13.8992 24.2941 12.95C22.9605 12.0007 21.3643 11.4906 19.7274 11.4906C18.0905 11.4906 16.4942 12.0007 15.1606 12.95C13.8271 13.8992 12.8224 15.2405 12.2865 16.7872C11.7505 18.3339 11.7098 20.0091 12.1701 21.58C12.6304 23.1509 13.5688 24.5393 14.8547 25.5521C12.4608 26.5067 10.4024 28.1477 8.93863 30.2689C7.08894 28.1889 5.87997 25.6185 5.4573 22.8672C5.03463 20.116 5.41628 17.3012 6.5563 14.7619C7.69633 12.2226 9.54611 10.0669 11.8829 8.55449C14.2197 7.0421 16.9439 6.23745 19.7274 6.23745C22.5109 6.23745 25.2351 7.0421 27.5719 8.55449C29.9087 10.0669 31.7584 12.2226 32.8985 14.7619C34.0385 17.3012 34.4201 20.116 33.9975 22.8672C33.5748 25.6185 32.3658 28.1889 30.5161 30.2689Z" fill="white"/>
</svg>
