<svg width="22" height="17" viewBox="0 0 22 17" fill="none" xmlns="http://www.w3.org/2000/svg">
<path d="M21.5 8.5C21.5 8.74035 21.4078 8.97086 21.2437 9.14082C21.0796 9.31077 20.8571 9.40625 20.625 9.40625H1.375C1.14294 9.40625 0.920376 9.31077 0.756282 9.14082C0.592187 8.97086 0.5 8.74035 0.5 8.5C0.5 8.25965 0.592187 8.02914 0.756282 7.85918C0.920376 7.68923 1.14294 7.59375 1.375 7.59375H20.625C20.8571 7.59375 21.0796 7.68923 21.2437 7.85918C21.4078 8.02914 21.5 8.25965 21.5 8.5ZM1.375 2.15625H20.625C20.8571 2.15625 21.0796 2.06077 21.2437 1.89082C21.4078 1.72086 21.5 1.49035 21.5 1.25C21.5 1.00965 21.4078 0.779139 21.2437 0.609185C21.0796 0.43923 20.8571 0.34375 20.625 0.34375H1.375C1.14294 0.34375 0.920376 0.43923 0.756282 0.609185C0.592187 0.779139 0.5 1.00965 0.5 1.25C0.5 1.49035 0.592187 1.72086 0.756282 1.89082C0.920376 2.06077 1.14294 2.15625 1.375 2.15625ZM20.625 14.8438H1.375C1.14294 14.8438 0.920376 14.9392 0.756282 15.1092C0.592187 15.2791 0.5 15.5096 0.5 15.75C0.5 15.9904 0.592187 16.2209 0.756282 16.3908C0.920376 16.5608 1.14294 16.6562 1.375 16.6562H20.625C20.8571 16.6562 21.0796 16.5608 21.2437 16.3908C21.4078 16.2209 21.5 15.9904 21.5 15.75C21.5 15.5096 21.4078 15.2791 21.2437 15.1092C21.0796 14.9392 20.8571 14.8438 20.625 14.8438Z" fill="white"/>
</svg>
