<svg width="35" height="35" viewBox="0 0 35 35" fill="none" xmlns="http://www.w3.org/2000/svg">
<path d="M34.6059 32.7032L26.1898 24.2887C28.6291 21.3602 29.8455 17.6039 29.5859 13.8014C29.3263 9.99879 27.6107 6.44271 24.7959 3.87285C21.9812 1.303 18.2841 -0.0827709 14.4737 0.00382737C10.6632 0.0904256 7.03287 1.64272 4.3378 4.3378C1.64272 7.03287 0.0904256 10.6632 0.00382737 14.4737C-0.0827709 18.2841 1.303 21.9812 3.87285 24.7959C6.44271 27.6107 9.99879 29.3263 13.8014 29.5859C17.6039 29.8455 21.3602 28.6291 24.2887 26.1898L32.7032 34.6059C32.8281 34.7309 32.9764 34.83 33.1397 34.8976C33.3029 34.9652 33.4779 35 33.6546 35C33.8312 35 34.0062 34.9652 34.1694 34.8976C34.3327 34.83 34.481 34.7309 34.6059 34.6059C34.7309 34.481 34.83 34.3327 34.8976 34.1694C34.9652 34.0062 35 33.8312 35 33.6546C35 33.4779 34.9652 33.3029 34.8976 33.1397C34.83 32.9764 34.7309 32.8281 34.6059 32.7032ZM2.72654 14.8288C2.72654 12.4352 3.43633 10.0954 4.76614 8.10515C6.09596 6.11494 7.98607 4.56377 10.1975 3.64777C12.4089 2.73178 14.8422 2.49212 17.1898 2.95909C19.5375 3.42605 21.6939 4.57868 23.3864 6.27122C25.0789 7.96375 26.2316 10.1202 26.6985 12.4678C27.1655 14.8154 26.9258 17.2487 26.0098 19.4601C25.0939 21.6715 23.5427 23.5617 21.5525 24.8915C19.5623 26.2213 17.2224 26.9311 14.8288 26.9311C11.6202 26.9275 8.54399 25.6513 6.27515 23.3825C4.0063 21.1136 2.7301 18.0374 2.72654 14.8288Z" fill="white"/>
</svg>
