<svg width="1183" height="152" viewBox="0 0 1183 152" fill="none" xmlns="http://www.w3.org/2000/svg">
<rect x="1" y="1" width="1181" height="123" rx="11" stroke="black" stroke-width="2"/>
<line x1="286" x2="286" y2="125" stroke="black" stroke-width="2"/>
<line x1="881" x2="881" y2="125" stroke="black" stroke-width="2"/>
<line x1="575" x2="575" y2="125" stroke="black" stroke-width="2"/>
<path d="M91.2213 80H88.2554L92.7746 66.9091H96.3414L100.854 80H97.8882L94.6091 69.9006H94.5068L91.2213 80ZM91.036 74.8544H98.0416V77.0149H91.036V74.8544ZM106.986 70.1818V72.2273H101.073V70.1818H106.986ZM102.415 67.8295H105.138V76.983C105.138 77.2344 105.177 77.4304 105.253 77.571C105.33 77.7074 105.437 77.8033 105.573 77.8587C105.714 77.9141 105.876 77.9418 106.059 77.9418C106.187 77.9418 106.315 77.9311 106.442 77.9098C106.57 77.8842 106.668 77.8651 106.736 77.8523L107.165 79.8786C107.028 79.9212 106.837 79.9702 106.589 80.0256C106.342 80.0852 106.042 80.1214 105.688 80.1342C105.032 80.1598 104.457 80.0724 103.962 79.8722C103.472 79.6719 103.091 79.3608 102.818 78.9389C102.545 78.517 102.411 77.9844 102.415 77.3409V67.8295ZM113.128 80.1918C112.119 80.1918 111.249 79.9872 110.521 79.5781C109.796 79.1648 109.238 78.581 108.846 77.8267C108.454 77.0682 108.258 76.1712 108.258 75.1357C108.258 74.1257 108.454 73.2393 108.846 72.4766C109.238 71.7138 109.79 71.1193 110.501 70.6932C111.217 70.267 112.057 70.054 113.02 70.054C113.668 70.054 114.271 70.1584 114.829 70.3672C115.391 70.5717 115.881 70.8807 116.299 71.294C116.721 71.7074 117.049 72.2273 117.283 72.8537C117.518 73.4759 117.635 74.2045 117.635 75.0398V75.7876H109.344V74.1001H115.072C115.072 73.7081 114.986 73.3608 114.816 73.0582C114.646 72.7557 114.409 72.5192 114.106 72.3487C113.808 72.174 113.461 72.0866 113.065 72.0866C112.651 72.0866 112.285 72.1825 111.965 72.3743C111.65 72.5618 111.403 72.8153 111.224 73.1349C111.045 73.4503 110.953 73.8018 110.949 74.1896V75.794C110.949 76.2798 111.038 76.6996 111.217 77.0533C111.4 77.407 111.658 77.6797 111.991 77.8714C112.323 78.0632 112.717 78.1591 113.173 78.1591C113.476 78.1591 113.753 78.1165 114.004 78.0312C114.256 77.946 114.471 77.8182 114.65 77.6477C114.829 77.4773 114.965 77.2685 115.059 77.0213L117.577 77.1875C117.449 77.7926 117.187 78.321 116.791 78.7727C116.399 79.2202 115.892 79.5696 115.27 79.821C114.652 80.0682 113.938 80.1918 113.128 80.1918ZM122.135 74.3239V80H119.412V70.1818H122.007V71.9141H122.122C122.339 71.343 122.704 70.8913 123.215 70.5589C123.726 70.2223 124.347 70.054 125.075 70.054C125.757 70.054 126.351 70.2031 126.859 70.5014C127.366 70.7997 127.76 71.2259 128.041 71.7798C128.322 72.3295 128.463 72.9858 128.463 73.7486V80H125.74V74.2344C125.744 73.6335 125.591 73.1648 125.28 72.8281C124.969 72.4872 124.54 72.3168 123.995 72.3168C123.628 72.3168 123.305 72.3956 123.023 72.5533C122.746 72.7109 122.529 72.9411 122.371 73.2436C122.218 73.5419 122.139 73.902 122.135 74.3239ZM134.227 80.1598C133.481 80.1598 132.806 79.968 132.201 79.5845C131.6 79.1967 131.123 78.6278 130.769 77.8778C130.419 77.1236 130.245 76.1989 130.245 75.1037C130.245 73.9787 130.426 73.0433 130.788 72.2976C131.15 71.5476 131.632 70.9872 132.233 70.6165C132.838 70.2415 133.5 70.054 134.221 70.054C134.77 70.054 135.228 70.1477 135.595 70.3352C135.966 70.5185 136.264 70.7486 136.49 71.0256C136.72 71.2983 136.895 71.5668 137.014 71.831H137.097V66.9091H139.814V80H137.129V78.4276H137.014C136.886 78.7003 136.705 78.9709 136.471 79.2393C136.241 79.5036 135.94 79.723 135.569 79.8977C135.203 80.0724 134.755 80.1598 134.227 80.1598ZM135.09 77.9929C135.529 77.9929 135.9 77.8736 136.202 77.6349C136.509 77.392 136.743 77.0533 136.905 76.6186C137.071 76.1839 137.155 75.6747 137.155 75.0909C137.155 74.5071 137.074 74 136.912 73.5696C136.75 73.1392 136.515 72.8068 136.209 72.5724C135.902 72.3381 135.529 72.2209 135.09 72.2209C134.642 72.2209 134.265 72.3423 133.959 72.5852C133.652 72.8281 133.419 73.1648 133.262 73.5952C133.104 74.0256 133.025 74.5241 133.025 75.0909C133.025 75.6619 133.104 76.1669 133.262 76.6058C133.424 77.0405 133.656 77.3814 133.959 77.6286C134.265 77.8714 134.642 77.9929 135.09 77.9929ZM142.052 80V70.1818H144.775V80H142.052ZM143.42 68.9162C143.016 68.9162 142.668 68.782 142.378 68.5135C142.093 68.2408 141.95 67.9148 141.95 67.5355C141.95 67.1605 142.093 66.8388 142.378 66.5703C142.668 66.2976 143.016 66.1612 143.42 66.1612C143.825 66.1612 144.17 66.2976 144.456 66.5703C144.746 66.8388 144.891 67.1605 144.891 67.5355C144.891 67.9148 144.746 68.2408 144.456 68.5135C144.17 68.782 143.825 68.9162 143.42 68.9162ZM146.957 80V70.1818H149.552V71.9141H149.667C149.872 71.3388 150.212 70.8849 150.69 70.5526C151.167 70.2202 151.738 70.054 152.403 70.054C153.076 70.054 153.649 70.2223 154.122 70.5589C154.595 70.8913 154.911 71.343 155.068 71.9141H155.171C155.371 71.3516 155.733 70.902 156.257 70.5653C156.786 70.2244 157.41 70.054 158.13 70.054C159.046 70.054 159.79 70.3459 160.361 70.9297C160.936 71.5092 161.224 72.3317 161.224 73.397V80H158.507V73.9339C158.507 73.3885 158.362 72.9794 158.073 72.7067C157.783 72.4339 157.421 72.2976 156.986 72.2976C156.492 72.2976 156.106 72.4553 155.829 72.7706C155.552 73.0817 155.413 73.4929 155.413 74.0043V80H152.774V73.8764C152.774 73.3949 152.635 73.0114 152.358 72.7259C152.085 72.4403 151.725 72.2976 151.278 72.2976C150.975 72.2976 150.703 72.3743 150.46 72.5277C150.221 72.6768 150.031 72.8878 149.891 73.1605C149.75 73.429 149.68 73.7443 149.68 74.1065V80H146.957ZM167.849 80.1918C166.839 80.1918 165.97 79.9872 165.241 79.5781C164.517 79.1648 163.959 78.581 163.566 77.8267C163.174 77.0682 162.978 76.1712 162.978 75.1357C162.978 74.1257 163.174 73.2393 163.566 72.4766C163.959 71.7138 164.51 71.1193 165.222 70.6932C165.938 70.267 166.777 70.054 167.741 70.054C168.388 70.054 168.991 70.1584 169.549 70.3672C170.112 70.5717 170.602 70.8807 171.02 71.294C171.441 71.7074 171.77 72.2273 172.004 72.8537C172.238 73.4759 172.356 74.2045 172.356 75.0398V75.7876H164.065V74.1001H169.792C169.792 73.7081 169.707 73.3608 169.537 73.0582C169.366 72.7557 169.13 72.5192 168.827 72.3487C168.529 72.174 168.182 72.0866 167.785 72.0866C167.372 72.0866 167.005 72.1825 166.686 72.3743C166.37 72.5618 166.123 72.8153 165.944 73.1349C165.765 73.4503 165.674 73.8018 165.669 74.1896V75.794C165.669 76.2798 165.759 76.6996 165.938 77.0533C166.121 77.407 166.379 77.6797 166.711 77.8714C167.044 78.0632 167.438 78.1591 167.894 78.1591C168.196 78.1591 168.473 78.1165 168.725 78.0312C168.976 77.946 169.191 77.8182 169.37 77.6477C169.549 77.4773 169.686 77.2685 169.78 77.0213L172.298 77.1875C172.17 77.7926 171.908 78.321 171.512 78.7727C171.12 79.2202 170.613 79.5696 169.991 79.821C169.373 80.0682 168.659 80.1918 167.849 80.1918ZM176.856 74.3239V80H174.133V70.1818H176.728V71.9141H176.843C177.06 71.343 177.424 70.8913 177.936 70.5589C178.447 70.2223 179.067 70.054 179.796 70.054C180.478 70.054 181.072 70.2031 181.579 70.5014C182.086 70.7997 182.481 71.2259 182.762 71.7798C183.043 72.3295 183.184 72.9858 183.184 73.7486V80H180.461V74.2344C180.465 73.6335 180.312 73.1648 180 72.8281C179.689 72.4872 179.261 72.3168 178.716 72.3168C178.349 72.3168 178.025 72.3956 177.744 72.5533C177.467 72.7109 177.25 72.9411 177.092 73.2436C176.939 73.5419 176.86 73.902 176.856 74.3239ZM190.552 70.1818V72.2273H184.639V70.1818H190.552ZM185.982 67.8295H188.705V76.983C188.705 77.2344 188.743 77.4304 188.82 77.571C188.897 77.7074 189.003 77.8033 189.139 77.8587C189.28 77.9141 189.442 77.9418 189.625 77.9418C189.753 77.9418 189.881 77.9311 190.009 77.9098C190.137 77.8842 190.235 77.8651 190.303 77.8523L190.731 79.8786C190.595 79.9212 190.403 79.9702 190.156 80.0256C189.909 80.0852 189.608 80.1214 189.255 80.1342C188.598 80.1598 188.023 80.0724 187.529 79.8722C187.039 79.6719 186.657 79.3608 186.384 78.9389C186.112 78.517 185.978 77.9844 185.982 77.3409V67.8295ZM196.657 80.1918C195.664 80.1918 194.805 79.9808 194.081 79.5589C193.36 79.1328 192.804 78.5405 192.412 77.782C192.02 77.0192 191.824 76.1349 191.824 75.1293C191.824 74.1151 192.02 73.2287 192.412 72.4702C192.804 71.7074 193.36 71.1151 194.081 70.6932C194.805 70.267 195.664 70.054 196.657 70.054C197.649 70.054 198.506 70.267 199.226 70.6932C199.951 71.1151 200.509 71.7074 200.901 72.4702C201.293 73.2287 201.489 74.1151 201.489 75.1293C201.489 76.1349 201.293 77.0192 200.901 77.782C200.509 78.5405 199.951 79.1328 199.226 79.5589C198.506 79.9808 197.649 80.1918 196.657 80.1918ZM196.669 78.0824C197.121 78.0824 197.498 77.9545 197.801 77.6989C198.103 77.4389 198.331 77.0852 198.485 76.6378C198.642 76.1903 198.721 75.6811 198.721 75.1101C198.721 74.5391 198.642 74.0298 198.485 73.5824C198.331 73.1349 198.103 72.7812 197.801 72.5213C197.498 72.2614 197.121 72.1314 196.669 72.1314C196.213 72.1314 195.83 72.2614 195.519 72.5213C195.212 72.7812 194.98 73.1349 194.822 73.5824C194.669 74.0298 194.592 74.5391 194.592 75.1101C194.592 75.6811 194.669 76.1903 194.822 76.6378C194.98 77.0852 195.212 77.4389 195.519 77.6989C195.83 77.9545 196.213 78.0824 196.669 78.0824ZM86.7293 105.682V92.1818H88.1867V93.7415H88.3657C88.4765 93.571 88.6299 93.3537 88.8259 93.0895C89.0262 92.821 89.3117 92.5824 89.6824 92.3736C90.0574 92.1605 90.5645 92.054 91.2037 92.054C92.0305 92.054 92.7591 92.2607 93.3898 92.674C94.0205 93.0874 94.5127 93.6733 94.8664 94.4318C95.2201 95.1903 95.3969 96.0852 95.3969 97.1165C95.3969 98.1562 95.2201 99.0575 94.8664 99.8203C94.5127 100.579 94.0226 101.167 93.3962 101.585C92.7698 101.998 92.0475 102.205 91.2293 102.205C90.5986 102.205 90.0937 102.1 89.7144 101.891C89.3351 101.678 89.0432 101.437 88.8387 101.169C88.6341 100.896 88.4765 100.67 88.3657 100.491H88.2378V105.682H86.7293ZM88.2123 97.0909C88.2123 97.8324 88.3209 98.4865 88.5383 99.0533C88.7556 99.6158 89.0731 100.057 89.4907 100.376C89.9083 100.692 90.4197 100.849 91.0248 100.849C91.6555 100.849 92.1817 100.683 92.6036 100.351C93.0297 100.014 93.3493 99.5625 93.5624 98.9957C93.7797 98.4247 93.8884 97.7898 93.8884 97.0909C93.8884 96.4006 93.7819 95.7784 93.5688 95.2244C93.36 94.6662 93.0425 94.2251 92.6164 93.9013C92.1945 93.5732 91.664 93.4091 91.0248 93.4091C90.4111 93.4091 89.8955 93.5646 89.4779 93.8757C89.0603 94.1825 88.7449 94.6129 88.5319 95.1669C88.3188 95.7166 88.2123 96.358 88.2123 97.0909ZM101.815 102.205C100.869 102.205 100.052 101.996 99.3664 101.578C98.6846 101.156 98.1583 100.568 97.7876 99.8139C97.4211 99.0554 97.2378 98.1733 97.2378 97.1676C97.2378 96.1619 97.4211 95.2756 97.7876 94.5085C98.1583 93.7372 98.6739 93.1364 99.3344 92.706C99.9992 92.2713 100.775 92.054 101.661 92.054C102.172 92.054 102.677 92.1392 103.176 92.3097C103.675 92.4801 104.128 92.7571 104.538 93.1406C104.947 93.5199 105.273 94.0227 105.516 94.6491C105.758 95.2756 105.88 96.0469 105.88 96.9631V97.6023H98.3117V96.2983H104.346C104.346 95.7443 104.235 95.25 104.013 94.8153C103.796 94.3807 103.485 94.0376 103.08 93.7862C102.68 93.5348 102.207 93.4091 101.661 93.4091C101.06 93.4091 100.54 93.5582 100.101 93.8565C99.6668 94.1506 99.3323 94.5341 99.0979 95.0071C98.8635 95.4801 98.7464 95.9872 98.7464 96.5284V97.3977C98.7464 98.1392 98.8742 98.7678 99.1299 99.2834C99.3898 99.7947 99.7499 100.185 100.21 100.453C100.67 100.717 101.205 100.849 101.815 100.849C102.211 100.849 102.569 100.794 102.888 100.683C103.212 100.568 103.491 100.398 103.726 100.172C103.96 99.9418 104.141 99.6562 104.269 99.3153L105.726 99.7244C105.573 100.219 105.315 100.653 104.953 101.028C104.591 101.399 104.143 101.689 103.611 101.898C103.078 102.102 102.479 102.205 101.815 102.205ZM108.175 102V92.1818H109.632V93.6648H109.734C109.913 93.179 110.237 92.7848 110.706 92.4822C111.175 92.1797 111.703 92.0284 112.291 92.0284C112.402 92.0284 112.54 92.0305 112.707 92.0348C112.873 92.0391 112.998 92.0455 113.084 92.054V93.5881C113.033 93.5753 112.915 93.5561 112.732 93.5305C112.553 93.5007 112.364 93.4858 112.163 93.4858C111.686 93.4858 111.26 93.5859 110.885 93.7862C110.514 93.9822 110.22 94.255 110.003 94.6044C109.79 94.9496 109.683 95.3437 109.683 95.7869V102H108.175ZM121.826 94.3807L120.471 94.7642C120.386 94.5384 120.26 94.3189 120.094 94.1058C119.932 93.8885 119.711 93.7095 119.429 93.5689C119.148 93.4283 118.788 93.358 118.349 93.358C117.748 93.358 117.248 93.4964 116.847 93.7734C116.451 94.0462 116.253 94.3935 116.253 94.8153C116.253 95.1903 116.389 95.4865 116.662 95.7038C116.934 95.9212 117.361 96.1023 117.94 96.2472L119.397 96.6051C120.275 96.8182 120.929 97.1442 121.36 97.5831C121.79 98.0178 122.005 98.5781 122.005 99.2642C122.005 99.8267 121.843 100.33 121.52 100.773C121.2 101.216 120.753 101.565 120.177 101.821C119.602 102.077 118.933 102.205 118.17 102.205C117.169 102.205 116.34 101.987 115.684 101.553C115.027 101.118 114.612 100.483 114.437 99.6477L115.869 99.2898C116.005 99.8182 116.263 100.214 116.642 100.479C117.026 100.743 117.527 100.875 118.145 100.875C118.848 100.875 119.406 100.726 119.819 100.428C120.237 100.125 120.446 99.7628 120.446 99.3409C120.446 99 120.326 98.7145 120.088 98.4844C119.849 98.25 119.483 98.0753 118.988 97.9602L117.352 97.5767C116.453 97.3636 115.792 97.0334 115.37 96.5859C114.953 96.1342 114.744 95.5696 114.744 94.892C114.744 94.3381 114.9 93.848 115.211 93.4219C115.526 92.9957 115.954 92.6612 116.495 92.4183C117.041 92.1754 117.659 92.054 118.349 92.054C119.321 92.054 120.084 92.267 120.638 92.6932C121.196 93.1193 121.592 93.6818 121.826 94.3807ZM128.265 102.205C127.378 102.205 126.601 101.994 125.932 101.572C125.267 101.15 124.747 100.56 124.372 99.8011C124.001 99.0426 123.816 98.1562 123.816 97.142C123.816 96.1193 124.001 95.2266 124.372 94.4638C124.747 93.701 125.267 93.1087 125.932 92.6868C126.601 92.2649 127.378 92.054 128.265 92.054C129.151 92.054 129.927 92.2649 130.592 92.6868C131.261 93.1087 131.78 93.701 132.151 94.4638C132.526 95.2266 132.714 96.1193 132.714 97.142C132.714 98.1562 132.526 99.0426 132.151 99.8011C131.78 100.56 131.261 101.15 130.592 101.572C129.927 101.994 129.151 102.205 128.265 102.205ZM128.265 100.849C128.938 100.849 129.492 100.677 129.927 100.332C130.361 99.9865 130.683 99.5327 130.892 98.9702C131.101 98.4077 131.205 97.7983 131.205 97.142C131.205 96.4858 131.101 95.8743 130.892 95.3075C130.683 94.7408 130.361 94.2827 129.927 93.9332C129.492 93.5838 128.938 93.4091 128.265 93.4091C127.592 93.4091 127.038 93.5838 126.603 93.9332C126.168 94.2827 125.847 94.7408 125.638 95.3075C125.429 95.8743 125.324 96.4858 125.324 97.142C125.324 97.7983 125.429 98.4077 125.638 98.9702C125.847 99.5327 126.168 99.9865 126.603 100.332C127.038 100.677 127.592 100.849 128.265 100.849ZM136.525 96.0938V102H135.016V92.1818H136.474V93.7159H136.602C136.832 93.2173 137.181 92.8168 137.65 92.5142C138.119 92.2074 138.724 92.054 139.465 92.054C140.13 92.054 140.712 92.1903 141.21 92.4631C141.709 92.7315 142.097 93.1406 142.374 93.6903C142.651 94.2358 142.789 94.9261 142.789 95.7614V102H141.281V95.8636C141.281 95.0923 141.08 94.4915 140.68 94.0611C140.279 93.6264 139.729 93.4091 139.031 93.4091C138.549 93.4091 138.119 93.5135 137.739 93.7223C137.364 93.9311 137.068 94.2358 136.851 94.6364C136.634 95.0369 136.525 95.5227 136.525 96.0938ZM148.435 102.23C147.813 102.23 147.248 102.113 146.741 101.879C146.234 101.64 145.831 101.297 145.533 100.849C145.235 100.398 145.085 99.8523 145.085 99.2131C145.085 98.6506 145.196 98.1946 145.418 97.8452C145.639 97.4915 145.936 97.2145 146.306 97.0142C146.677 96.8139 147.086 96.6648 147.534 96.5668C147.985 96.4645 148.439 96.3835 148.895 96.3239C149.492 96.2472 149.975 96.1896 150.346 96.1513C150.721 96.1087 150.994 96.0384 151.164 95.9403C151.339 95.8423 151.426 95.6719 151.426 95.429V95.3778C151.426 94.7472 151.254 94.2571 150.909 93.9077C150.568 93.5582 150.05 93.3835 149.355 93.3835C148.635 93.3835 148.071 93.5412 147.661 93.8565C147.252 94.1719 146.965 94.5085 146.799 94.8665L145.367 94.3551C145.622 93.7585 145.963 93.294 146.389 92.9616C146.82 92.625 147.289 92.3906 147.796 92.2585C148.307 92.1222 148.81 92.054 149.304 92.054C149.62 92.054 149.982 92.0923 150.391 92.169C150.804 92.2415 151.203 92.3928 151.586 92.6229C151.974 92.853 152.296 93.2003 152.551 93.6648C152.807 94.1293 152.935 94.7514 152.935 95.5312V102H151.426V100.67H151.35C151.247 100.884 151.077 101.112 150.838 101.354C150.6 101.597 150.282 101.804 149.886 101.974C149.49 102.145 149.006 102.23 148.435 102.23ZM148.665 100.875C149.262 100.875 149.764 100.758 150.174 100.523C150.587 100.289 150.898 99.9865 151.107 99.6158C151.32 99.245 151.426 98.8551 151.426 98.446V97.0653C151.362 97.142 151.222 97.2124 151.005 97.2763C150.791 97.3359 150.544 97.3892 150.263 97.4361C149.986 97.4787 149.715 97.517 149.451 97.5511C149.191 97.581 148.98 97.6065 148.818 97.6278C148.426 97.679 148.06 97.7621 147.719 97.8771C147.382 97.9879 147.11 98.1562 146.901 98.3821C146.696 98.6037 146.594 98.9062 146.594 99.2898C146.594 99.8139 146.788 100.21 147.176 100.479C147.568 100.743 148.064 100.875 148.665 100.875ZM157.197 88.9091V102H155.688V88.9091H157.197ZM159.96 102V92.1818H161.468V102H159.96ZM160.727 90.5455C160.433 90.5455 160.179 90.4453 159.966 90.245C159.757 90.0447 159.653 89.804 159.653 89.5227C159.653 89.2415 159.757 89.0007 159.966 88.8004C160.179 88.6001 160.433 88.5 160.727 88.5C161.021 88.5 161.272 88.6001 161.481 88.8004C161.694 89.0007 161.801 89.2415 161.801 89.5227C161.801 89.804 161.694 90.0447 161.481 90.245C161.272 90.4453 161.021 90.5455 160.727 90.5455ZM163.95 102V100.849L169.524 93.6903V93.5881H164.129V92.1818H171.467V93.3835L166.047 100.491V100.594H171.646V102H163.95ZM176.859 102.23C176.237 102.23 175.672 102.113 175.165 101.879C174.658 101.64 174.255 101.297 173.957 100.849C173.658 100.398 173.509 99.8523 173.509 99.2131C173.509 98.6506 173.62 98.1946 173.842 97.8452C174.063 97.4915 174.359 97.2145 174.73 97.0142C175.101 96.8139 175.51 96.6648 175.957 96.5668C176.409 96.4645 176.863 96.3835 177.319 96.3239C177.916 96.2472 178.399 96.1896 178.77 96.1513C179.145 96.1087 179.418 96.0384 179.588 95.9403C179.763 95.8423 179.85 95.6719 179.85 95.429V95.3778C179.85 94.7472 179.678 94.2571 179.332 93.9077C178.992 93.5582 178.474 93.3835 177.779 93.3835C177.059 93.3835 176.494 93.5412 176.085 93.8565C175.676 94.1719 175.389 94.5085 175.222 94.8665L173.791 94.3551C174.046 93.7585 174.387 93.294 174.813 92.9616C175.244 92.625 175.712 92.3906 176.22 92.2585C176.731 92.1222 177.234 92.054 177.728 92.054C178.043 92.054 178.406 92.0923 178.815 92.169C179.228 92.2415 179.627 92.3928 180.01 92.6229C180.398 92.853 180.72 93.2003 180.975 93.6648C181.231 94.1293 181.359 94.7514 181.359 95.5312V102H179.85V100.67H179.774C179.671 100.884 179.501 101.112 179.262 101.354C179.024 101.597 178.706 101.804 178.31 101.974C177.913 102.145 177.43 102.23 176.859 102.23ZM177.089 100.875C177.685 100.875 178.188 100.758 178.597 100.523C179.011 100.289 179.322 99.9865 179.531 99.6158C179.744 99.245 179.85 98.8551 179.85 98.446V97.0653C179.786 97.142 179.646 97.2124 179.428 97.2763C179.215 97.3359 178.968 97.3892 178.687 97.4361C178.41 97.4787 178.139 97.517 177.875 97.5511C177.615 97.581 177.404 97.6065 177.242 97.6278C176.85 97.679 176.484 97.7621 176.143 97.8771C175.806 97.9879 175.533 98.1562 175.325 98.3821C175.12 98.6037 175.018 98.9062 175.018 99.2898C175.018 99.8139 175.212 100.21 175.6 100.479C175.992 100.743 176.488 100.875 177.089 100.875ZM187.82 102.205C187.001 102.205 186.279 101.998 185.653 101.585C185.026 101.167 184.536 100.579 184.182 99.8203C183.829 99.0575 183.652 98.1562 183.652 97.1165C183.652 96.0852 183.829 95.1903 184.182 94.4318C184.536 93.6733 185.028 93.0874 185.659 92.674C186.29 92.2607 187.018 92.054 187.845 92.054C188.484 92.054 188.989 92.1605 189.36 92.3736C189.735 92.5824 190.021 92.821 190.217 93.0895C190.417 93.3537 190.572 93.571 190.683 93.7415H190.811V88.9091H192.32V102H190.862V100.491H190.683C190.572 100.67 190.415 100.896 190.21 101.169C190.006 101.437 189.714 101.678 189.334 101.891C188.955 102.1 188.45 102.205 187.82 102.205ZM188.024 100.849C188.629 100.849 189.141 100.692 189.558 100.376C189.976 100.057 190.293 99.6158 190.511 99.0533C190.728 98.4865 190.837 97.8324 190.837 97.0909C190.837 96.358 190.73 95.7166 190.517 95.1669C190.304 94.6129 189.989 94.1825 189.571 93.8757C189.153 93.5646 188.638 93.4091 188.024 93.4091C187.385 93.4091 186.852 93.5732 186.426 93.9013C186.004 94.2251 185.687 94.6662 185.474 95.2244C185.265 95.7784 185.16 96.4006 185.16 97.0909C185.16 97.7898 185.267 98.4247 185.48 98.9957C185.697 99.5625 186.017 100.014 186.439 100.351C186.865 100.683 187.393 100.849 188.024 100.849ZM199.28 102.205C198.394 102.205 197.616 101.994 196.947 101.572C196.283 101.15 195.763 100.56 195.388 99.8011C195.017 99.0426 194.832 98.1562 194.832 97.142C194.832 96.1193 195.017 95.2266 195.388 94.4638C195.763 93.701 196.283 93.1087 196.947 92.6868C197.616 92.2649 198.394 92.054 199.28 92.054C200.167 92.054 200.942 92.2649 201.607 92.6868C202.276 93.1087 202.796 93.701 203.167 94.4638C203.542 95.2266 203.729 96.1193 203.729 97.142C203.729 98.1562 203.542 99.0426 203.167 99.8011C202.796 100.56 202.276 101.15 201.607 101.572C200.942 101.994 200.167 102.205 199.28 102.205ZM199.28 100.849C199.954 100.849 200.508 100.677 200.942 100.332C201.377 99.9865 201.699 99.5327 201.908 98.9702C202.116 98.4077 202.221 97.7983 202.221 97.142C202.221 96.4858 202.116 95.8743 201.908 95.3075C201.699 94.7408 201.377 94.2827 200.942 93.9332C200.508 93.5838 199.954 93.4091 199.28 93.4091C198.607 93.4091 198.053 93.5838 197.619 93.9332C197.184 94.2827 196.862 94.7408 196.653 95.3075C196.445 95.8743 196.34 96.4858 196.34 97.142C196.34 97.7983 196.445 98.4077 196.653 98.9702C196.862 99.5327 197.184 99.9865 197.619 100.332C198.053 100.677 198.607 100.849 199.28 100.849Z" fill="black"/>
<path d="M157.488 22.6082C155.806 20.9091 153.805 19.5584 151.6 18.6336C149.396 17.7088 147.03 17.228 144.639 17.2188H144.5C139.652 17.2188 135.002 19.1448 131.573 22.5732C128.145 26.0016 126.219 30.6515 126.219 35.5V45.3438C126.219 46.4626 126.663 47.5357 127.454 48.3269C128.246 49.118 129.319 49.5625 130.438 49.5625H133.25C134.369 49.5625 135.442 49.118 136.233 48.3269C137.024 47.5357 137.469 46.4626 137.469 45.3438V38.3125C137.469 37.1936 137.024 36.1206 136.233 35.3294C135.442 34.5382 134.369 34.0938 133.25 34.0938H129.095C129.366 31.1616 130.467 28.3675 132.27 26.0389C134.072 23.7104 136.501 21.9438 139.271 20.9463C142.042 19.9488 145.039 19.7617 147.913 20.4069C150.786 21.0521 153.415 22.5029 155.493 24.5893C158.033 27.1421 159.595 30.5062 159.907 34.0938H155.75C154.631 34.0938 153.558 34.5382 152.767 35.3294C151.976 36.1206 151.531 37.1936 151.531 38.3125V45.3438C151.531 46.4626 151.976 47.5357 152.767 48.3269C153.558 49.118 154.631 49.5625 155.75 49.5625H159.969C159.969 50.6814 159.524 51.7544 158.733 52.5456C157.942 53.3368 156.869 53.7812 155.75 53.7812H145.906C145.533 53.7812 145.176 53.9294 144.912 54.1931C144.648 54.4569 144.5 54.8145 144.5 55.1875C144.5 55.5605 144.648 55.9181 144.912 56.1819C145.176 56.4456 145.533 56.5938 145.906 56.5938H155.75C157.615 56.5938 159.403 55.853 160.722 54.5343C162.04 53.2157 162.781 51.4273 162.781 49.5625V35.5C162.79 33.1086 162.328 30.7389 161.419 28.5267C160.511 26.3145 159.175 24.3033 157.488 22.6082ZM133.25 36.9062C133.623 36.9062 133.981 37.0544 134.244 37.3181C134.508 37.5819 134.656 37.9395 134.656 38.3125V45.3438C134.656 45.7167 134.508 46.0744 134.244 46.3381C133.981 46.6018 133.623 46.75 133.25 46.75H130.438C130.065 46.75 129.707 46.6018 129.443 46.3381C129.179 46.0744 129.031 45.7167 129.031 45.3438V36.9062H133.25ZM155.75 46.75C155.377 46.75 155.019 46.6018 154.756 46.3381C154.492 46.0744 154.344 45.7167 154.344 45.3438V38.3125C154.344 37.9395 154.492 37.5819 154.756 37.3181C155.019 37.0544 155.377 36.9062 155.75 36.9062H159.969V46.75H155.75Z" fill="black"/>
<path d="M400.281 84V70.9091H409.102V73.1911H403.049V76.3104H408.649V78.5923H403.049V81.718H409.128V84H400.281ZM413.975 78.3239V84H411.252V74.1818H413.847V75.9141H413.962C414.179 75.343 414.544 74.8913 415.055 74.5589C415.566 74.2223 416.186 74.054 416.915 74.054C417.597 74.054 418.191 74.2031 418.698 74.5014C419.206 74.7997 419.6 75.2259 419.881 75.7798C420.162 76.3295 420.303 76.9858 420.303 77.7486V84H417.58V78.2344C417.584 77.6335 417.431 77.1648 417.12 76.8281C416.809 76.4872 416.38 76.3168 415.835 76.3168C415.468 76.3168 415.144 76.3956 414.863 76.5533C414.586 76.7109 414.369 76.9411 414.211 77.2436C414.058 77.5419 413.979 77.902 413.975 78.3239ZM427.671 74.1818V76.2273H421.759V74.1818H427.671ZM423.101 71.8295H425.824V80.983C425.824 81.2344 425.862 81.4304 425.939 81.571C426.016 81.7074 426.122 81.8033 426.259 81.8587C426.399 81.9141 426.561 81.9418 426.744 81.9418C426.872 81.9418 427 81.9311 427.128 81.9098C427.256 81.8842 427.354 81.8651 427.422 81.8523L427.85 83.8786C427.714 83.9212 427.522 83.9702 427.275 84.0256C427.028 84.0852 426.727 84.1214 426.374 84.1342C425.717 84.1598 425.142 84.0724 424.648 83.8722C424.158 83.6719 423.776 83.3608 423.504 82.9389C423.231 82.517 423.097 81.9844 423.101 81.3409V71.8295ZM429.445 84V74.1818H432.085V75.8949H432.187C432.366 75.2855 432.667 74.8253 433.089 74.5142C433.51 74.1989 433.996 74.0412 434.546 74.0412C434.682 74.0412 434.829 74.0497 434.987 74.0668C435.145 74.0838 435.283 74.1072 435.402 74.1371V76.5533C435.275 76.5149 435.098 76.4808 434.872 76.451C434.646 76.4212 434.439 76.4062 434.252 76.4062C433.851 76.4062 433.493 76.4936 433.178 76.6683C432.867 76.8388 432.62 77.0774 432.437 77.3842C432.258 77.6911 432.168 78.0447 432.168 78.4453V84H429.445ZM440.828 84.1918C439.818 84.1918 438.948 83.9872 438.22 83.5781C437.495 83.1648 436.937 82.581 436.545 81.8267C436.153 81.0682 435.957 80.1712 435.957 79.1357C435.957 78.1257 436.153 77.2393 436.545 76.4766C436.937 75.7138 437.489 75.1193 438.201 74.6932C438.916 74.267 439.756 74.054 440.719 74.054C441.367 74.054 441.97 74.1584 442.528 74.3672C443.09 74.5717 443.581 74.8807 443.998 75.294C444.42 75.7074 444.748 76.2273 444.983 76.8537C445.217 77.4759 445.334 78.2045 445.334 79.0398V79.7876H437.044V78.1001H442.771C442.771 77.7081 442.686 77.3608 442.515 77.0582C442.345 76.7557 442.108 76.5192 441.806 76.3487C441.507 76.174 441.16 76.0866 440.764 76.0866C440.35 76.0866 439.984 76.1825 439.664 76.3743C439.349 76.5618 439.102 76.8153 438.923 77.1349C438.744 77.4503 438.652 77.8018 438.648 78.1896V79.794C438.648 80.2798 438.737 80.6996 438.916 81.0533C439.1 81.407 439.358 81.6797 439.69 81.8714C440.022 82.0632 440.416 82.1591 440.872 82.1591C441.175 82.1591 441.452 82.1165 441.703 82.0312C441.955 81.946 442.17 81.8182 442.349 81.6477C442.528 81.4773 442.664 81.2685 442.758 81.0213L445.277 81.1875C445.149 81.7926 444.887 82.321 444.49 82.7727C444.098 83.2202 443.591 83.5696 442.969 83.821C442.351 84.0682 441.637 84.1918 440.828 84.1918ZM451.534 87.8864C450.652 87.8864 449.896 87.7649 449.265 87.522C448.639 87.2834 448.14 86.9574 447.769 86.544C447.399 86.1307 447.158 85.6662 447.047 85.1506L449.566 84.8118C449.642 85.0078 449.764 85.1911 449.93 85.3615C450.096 85.532 450.316 85.6683 450.588 85.7706C450.865 85.8771 451.202 85.9304 451.598 85.9304C452.191 85.9304 452.679 85.7855 453.062 85.4957C453.45 85.2102 453.644 84.7308 453.644 84.0575V82.2614H453.529C453.409 82.5341 453.23 82.7919 452.992 83.0348C452.753 83.2777 452.446 83.4759 452.071 83.6293C451.696 83.7827 451.249 83.8594 450.729 83.8594C449.992 83.8594 449.321 83.6889 448.715 83.348C448.115 83.0028 447.635 82.4766 447.277 81.7692C446.924 81.0575 446.747 80.1584 446.747 79.0717C446.747 77.9595 446.928 77.0305 447.29 76.2848C447.652 75.5391 448.134 74.9808 448.735 74.6101C449.34 74.2393 450.002 74.054 450.723 74.054C451.272 74.054 451.733 74.1477 452.103 74.3352C452.474 74.5185 452.772 74.7486 452.998 75.0256C453.228 75.2983 453.405 75.5668 453.529 75.831H453.631V74.1818H456.335V84.0959C456.335 84.9311 456.13 85.63 455.721 86.1925C455.312 86.755 454.745 87.1768 454.021 87.4581C453.301 87.7436 452.472 87.8864 451.534 87.8864ZM451.592 81.8139C452.031 81.8139 452.402 81.7053 452.704 81.4879C453.011 81.2663 453.245 80.951 453.407 80.5419C453.573 80.1286 453.657 79.6342 453.657 79.0589C453.657 78.4837 453.576 77.9851 453.414 77.5632C453.252 77.1371 453.017 76.8068 452.71 76.5724C452.404 76.3381 452.031 76.2209 451.592 76.2209C451.144 76.2209 450.767 76.3423 450.46 76.5852C450.154 76.8239 449.921 77.1562 449.764 77.5824C449.606 78.0085 449.527 78.5007 449.527 79.0589C449.527 79.6257 449.606 80.1158 449.764 80.5291C449.926 80.9382 450.158 81.2557 450.46 81.4815C450.767 81.7031 451.144 81.8139 451.592 81.8139ZM461.301 84.1854C460.675 84.1854 460.117 84.0767 459.627 83.8594C459.137 83.6378 458.749 83.3118 458.463 82.8814C458.182 82.4467 458.041 81.9055 458.041 81.2578C458.041 80.7124 458.142 80.2543 458.342 79.8835C458.542 79.5128 458.815 79.2145 459.16 78.9886C459.505 78.7628 459.897 78.5923 460.336 78.4773C460.779 78.3622 461.244 78.2812 461.73 78.2344C462.301 78.1747 462.761 78.1193 463.11 78.0682C463.46 78.0128 463.713 77.9318 463.871 77.8253C464.029 77.7187 464.108 77.5611 464.108 77.3523V77.3139C464.108 76.9091 463.98 76.5959 463.724 76.3743C463.473 76.1527 463.115 76.0419 462.65 76.0419C462.16 76.0419 461.77 76.1506 461.48 76.3679C461.191 76.581 460.999 76.8494 460.905 77.1733L458.387 76.9688C458.514 76.3722 458.766 75.8565 459.141 75.4219C459.516 74.983 460 74.6463 460.592 74.4119C461.188 74.1733 461.879 74.054 462.663 74.054C463.208 74.054 463.73 74.1179 464.229 74.2457C464.732 74.3736 465.177 74.5717 465.565 74.8402C465.957 75.1087 466.266 75.4538 466.492 75.8757C466.718 76.2933 466.831 76.794 466.831 77.3778V84H464.248V82.6385H464.171C464.014 82.9453 463.803 83.2159 463.539 83.4503C463.274 83.6804 462.957 83.8615 462.586 83.9936C462.215 84.1214 461.787 84.1854 461.301 84.1854ZM462.081 82.3061C462.482 82.3061 462.835 82.2273 463.142 82.0696C463.449 81.9077 463.69 81.6903 463.865 81.4176C464.039 81.1449 464.127 80.8359 464.127 80.4908V79.4489C464.041 79.5043 463.924 79.5554 463.775 79.6023C463.63 79.6449 463.466 79.6854 463.283 79.7237C463.1 79.7578 462.916 79.7898 462.733 79.8196C462.55 79.8452 462.384 79.8686 462.235 79.8899C461.915 79.9368 461.636 80.0114 461.397 80.1136C461.159 80.2159 460.973 80.3544 460.841 80.5291C460.709 80.6996 460.643 80.9126 460.643 81.1683C460.643 81.5391 460.777 81.8224 461.046 82.0185C461.318 82.2102 461.664 82.3061 462.081 82.3061ZM408.18 106V96.1818H409.637V97.6648H409.739C409.918 97.179 410.242 96.7848 410.711 96.4822C411.18 96.1797 411.708 96.0284 412.296 96.0284C412.407 96.0284 412.545 96.0305 412.711 96.0348C412.878 96.0391 413.003 96.0455 413.089 96.054V97.5881C413.037 97.5753 412.92 97.5561 412.737 97.5305C412.558 97.5007 412.368 97.4858 412.168 97.4858C411.691 97.4858 411.265 97.5859 410.89 97.7862C410.519 97.9822 410.225 98.255 410.008 98.6044C409.795 98.9496 409.688 99.3437 409.688 99.7869V106H408.18ZM417.766 106.23C417.144 106.23 416.579 106.113 416.072 105.879C415.565 105.64 415.162 105.297 414.864 104.849C414.566 104.398 414.417 103.852 414.417 103.213C414.417 102.651 414.527 102.195 414.749 101.845C414.971 101.491 415.267 101.214 415.637 101.014C416.008 100.814 416.417 100.665 416.865 100.567C417.316 100.464 417.77 100.384 418.226 100.324C418.823 100.247 419.306 100.19 419.677 100.151C420.052 100.109 420.325 100.038 420.495 99.9403C420.67 99.8423 420.757 99.6719 420.757 99.429V99.3778C420.757 98.7472 420.585 98.2571 420.24 97.9077C419.899 97.5582 419.381 97.3835 418.686 97.3835C417.966 97.3835 417.402 97.5412 416.993 97.8565C416.583 98.1719 416.296 98.5085 416.13 98.8665L414.698 98.3551C414.953 97.7585 415.294 97.294 415.721 96.9616C416.151 96.625 416.62 96.3906 417.127 96.2585C417.638 96.1222 418.141 96.054 418.635 96.054C418.951 96.054 419.313 96.0923 419.722 96.169C420.135 96.2415 420.534 96.3928 420.917 96.6229C421.305 96.853 421.627 97.2003 421.882 97.6648C422.138 98.1293 422.266 98.7514 422.266 99.5312V106H420.757V104.67H420.681C420.578 104.884 420.408 105.112 420.169 105.354C419.931 105.597 419.613 105.804 419.217 105.974C418.821 106.145 418.337 106.23 417.766 106.23ZM417.996 104.875C418.593 104.875 419.096 104.758 419.505 104.523C419.918 104.289 420.229 103.987 420.438 103.616C420.651 103.245 420.757 102.855 420.757 102.446V101.065C420.694 101.142 420.553 101.212 420.336 101.276C420.123 101.336 419.875 101.389 419.594 101.436C419.317 101.479 419.047 101.517 418.782 101.551C418.522 101.581 418.311 101.607 418.15 101.628C417.757 101.679 417.391 101.762 417.05 101.877C416.713 101.988 416.441 102.156 416.232 102.382C416.027 102.604 415.925 102.906 415.925 103.29C415.925 103.814 416.119 104.21 416.507 104.479C416.899 104.743 417.395 104.875 417.996 104.875ZM418.047 94.8523L419.607 91.8864H421.371L419.377 94.8523H418.047ZM425.019 109.682V96.1818H426.477V97.7415H426.656C426.767 97.571 426.92 97.3537 427.116 97.0895C427.316 96.821 427.602 96.5824 427.972 96.3736C428.347 96.1605 428.855 96.054 429.494 96.054C430.32 96.054 431.049 96.2607 431.68 96.674C432.311 97.0874 432.803 97.6733 433.156 98.4318C433.51 99.1903 433.687 100.085 433.687 101.116C433.687 102.156 433.51 103.058 433.156 103.82C432.803 104.579 432.313 105.167 431.686 105.585C431.06 105.998 430.338 106.205 429.519 106.205C428.889 106.205 428.384 106.1 428.004 105.891C427.625 105.678 427.333 105.437 427.129 105.169C426.924 104.896 426.767 104.67 426.656 104.491H426.528V109.682H425.019ZM426.502 101.091C426.502 101.832 426.611 102.487 426.828 103.053C427.046 103.616 427.363 104.057 427.781 104.376C428.198 104.692 428.71 104.849 429.315 104.849C429.945 104.849 430.472 104.683 430.894 104.351C431.32 104.014 431.639 103.562 431.852 102.996C432.07 102.425 432.178 101.79 432.178 101.091C432.178 100.401 432.072 99.7784 431.859 99.2244C431.65 98.6662 431.333 98.2251 430.906 97.9013C430.485 97.5732 429.954 97.4091 429.315 97.4091C428.701 97.4091 428.186 97.5646 427.768 97.8757C427.35 98.1825 427.035 98.6129 426.822 99.1669C426.609 99.7166 426.502 100.358 426.502 101.091ZM435.988 106V96.1818H437.497V106H435.988ZM436.755 94.5455C436.461 94.5455 436.208 94.4453 435.994 94.245C435.786 94.0447 435.681 93.804 435.681 93.5227C435.681 93.2415 435.786 93.0007 435.994 92.8004C436.208 92.6001 436.461 92.5 436.755 92.5C437.049 92.5 437.301 92.6001 437.509 92.8004C437.722 93.0007 437.829 93.2415 437.829 93.5227C437.829 93.804 437.722 94.0447 437.509 94.245C437.301 94.4453 437.049 94.5455 436.755 94.5455ZM443.967 106.205C443.149 106.205 442.426 105.998 441.8 105.585C441.174 105.167 440.684 104.579 440.33 103.82C439.976 103.058 439.799 102.156 439.799 101.116C439.799 100.085 439.976 99.1903 440.33 98.4318C440.684 97.6733 441.176 97.0874 441.806 96.674C442.437 96.2607 443.166 96.054 443.993 96.054C444.632 96.054 445.137 96.1605 445.507 96.3736C445.882 96.5824 446.168 96.821 446.364 97.0895C446.564 97.3537 446.72 97.571 446.831 97.7415H446.958V92.9091H448.467V106H447.01V104.491H446.831C446.72 104.67 446.562 104.896 446.358 105.169C446.153 105.437 445.861 105.678 445.482 105.891C445.103 106.1 444.598 106.205 443.967 106.205ZM444.172 104.849C444.777 104.849 445.288 104.692 445.706 104.376C446.123 104.057 446.441 103.616 446.658 103.053C446.875 102.487 446.984 101.832 446.984 101.091C446.984 100.358 446.877 99.7166 446.664 99.1669C446.451 98.6129 446.136 98.1825 445.718 97.8757C445.301 97.5646 444.785 97.4091 444.172 97.4091C443.532 97.4091 443 97.5732 442.574 97.9013C442.152 98.2251 441.834 98.6662 441.621 99.2244C441.412 99.7784 441.308 100.401 441.308 101.091C441.308 101.79 441.414 102.425 441.627 102.996C441.845 103.562 442.164 104.014 442.586 104.351C443.012 104.683 443.541 104.849 444.172 104.849ZM454.328 106.23C453.706 106.23 453.142 106.113 452.635 105.879C452.127 105.64 451.725 105.297 451.426 104.849C451.128 104.398 450.979 103.852 450.979 103.213C450.979 102.651 451.09 102.195 451.311 101.845C451.533 101.491 451.829 101.214 452.2 101.014C452.571 100.814 452.98 100.665 453.427 100.567C453.879 100.464 454.333 100.384 454.789 100.324C455.385 100.247 455.869 100.19 456.24 100.151C456.615 100.109 456.887 100.038 457.058 99.9403C457.233 99.8423 457.32 99.6719 457.32 99.429V99.3778C457.32 98.7472 457.147 98.2571 456.802 97.9077C456.461 97.5582 455.944 97.3835 455.249 97.3835C454.529 97.3835 453.964 97.5412 453.555 97.8565C453.146 98.1719 452.858 98.5085 452.692 98.8665L451.26 98.3551C451.516 97.7585 451.857 97.294 452.283 96.9616C452.713 96.625 453.182 96.3906 453.689 96.2585C454.201 96.1222 454.703 96.054 455.198 96.054C455.513 96.054 455.875 96.0923 456.284 96.169C456.698 96.2415 457.096 96.3928 457.48 96.6229C457.868 96.853 458.189 97.2003 458.445 97.6648C458.701 98.1293 458.828 98.7514 458.828 99.5312V106H457.32V104.67H457.243C457.141 104.884 456.971 105.112 456.732 105.354C456.493 105.597 456.176 105.804 455.779 105.974C455.383 106.145 454.9 106.23 454.328 106.23ZM454.559 104.875C455.155 104.875 455.658 104.758 456.067 104.523C456.48 104.289 456.792 103.987 457 103.616C457.213 103.245 457.32 102.855 457.32 102.446V101.065C457.256 101.142 457.115 101.212 456.898 101.276C456.685 101.336 456.438 101.389 456.157 101.436C455.88 101.479 455.609 101.517 455.345 101.551C455.085 101.581 454.874 101.607 454.712 101.628C454.32 101.679 453.953 101.762 453.613 101.877C453.276 101.988 453.003 102.156 452.794 102.382C452.59 102.604 452.488 102.906 452.488 103.29C452.488 103.814 452.681 104.21 453.069 104.479C453.461 104.743 453.958 104.875 454.559 104.875Z" fill="black"/>
<path d="M685.538 69.9091L688.702 79.8551H688.824L691.994 69.9091H695.062L690.549 83H686.983L682.463 69.9091H685.538ZM698.297 83.1854C697.67 83.1854 697.112 83.0767 696.622 82.8594C696.132 82.6378 695.744 82.3118 695.458 81.8814C695.177 81.4467 695.037 80.9055 695.037 80.2578C695.037 79.7124 695.137 79.2543 695.337 78.8835C695.537 78.5128 695.81 78.2145 696.155 77.9886C696.5 77.7628 696.892 77.5923 697.331 77.4773C697.775 77.3622 698.239 77.2812 698.725 77.2344C699.296 77.1747 699.756 77.1193 700.105 77.0682C700.455 77.0128 700.708 76.9318 700.866 76.8253C701.024 76.7187 701.103 76.5611 701.103 76.3523V76.3139C701.103 75.9091 700.975 75.5959 700.719 75.3743C700.468 75.1527 700.11 75.0419 699.645 75.0419C699.155 75.0419 698.765 75.1506 698.475 75.3679C698.186 75.581 697.994 75.8494 697.9 76.1733L695.382 75.9688C695.51 75.3722 695.761 74.8565 696.136 74.4219C696.511 73.983 696.995 73.6463 697.587 73.4119C698.184 73.1733 698.874 73.054 699.658 73.054C700.203 73.054 700.725 73.1179 701.224 73.2457C701.727 73.3736 702.172 73.5717 702.56 73.8402C702.952 74.1087 703.261 74.4538 703.487 74.8757C703.713 75.2933 703.826 75.794 703.826 76.3778V83H701.243V81.6385H701.167C701.009 81.9453 700.798 82.2159 700.534 82.4503C700.27 82.6804 699.952 82.8615 699.581 82.9936C699.211 83.1214 698.782 83.1854 698.297 83.1854ZM699.076 81.3061C699.477 81.3061 699.831 81.2273 700.137 81.0696C700.444 80.9077 700.685 80.6903 700.86 80.4176C701.034 80.1449 701.122 79.8359 701.122 79.4908V78.4489C701.037 78.5043 700.919 78.5554 700.77 78.6023C700.625 78.6449 700.461 78.6854 700.278 78.7237C700.095 78.7578 699.912 78.7898 699.728 78.8196C699.545 78.8452 699.379 78.8686 699.23 78.8899C698.91 78.9368 698.631 79.0114 698.392 79.1136C698.154 79.2159 697.968 79.3544 697.836 79.5291C697.704 79.6996 697.638 79.9126 697.638 80.1683C697.638 80.5391 697.772 80.8224 698.041 81.0185C698.314 81.2102 698.659 81.3061 699.076 81.3061ZM705.938 83V73.1818H708.578V74.8949H708.68C708.859 74.2855 709.16 73.8253 709.582 73.5142C710.004 73.1989 710.489 73.0412 711.039 73.0412C711.175 73.0412 711.322 73.0497 711.48 73.0668C711.638 73.0838 711.776 73.1072 711.896 73.1371V75.5533C711.768 75.5149 711.591 75.4808 711.365 75.451C711.139 75.4212 710.933 75.4062 710.745 75.4062C710.344 75.4062 709.987 75.4936 709.671 75.6683C709.36 75.8388 709.113 76.0774 708.93 76.3842C708.751 76.6911 708.661 77.0447 708.661 77.4453V83H705.938ZM713.303 83V73.1818H716.026V83H713.303ZM714.671 71.9162C714.267 71.9162 713.919 71.782 713.629 71.5135C713.344 71.2408 713.201 70.9148 713.201 70.5355C713.201 70.1605 713.344 69.8388 713.629 69.5703C713.919 69.2976 714.267 69.1612 714.671 69.1612C715.076 69.1612 715.421 69.2976 715.707 69.5703C715.997 69.8388 716.142 70.1605 716.142 70.5355C716.142 70.9148 715.997 71.2408 715.707 71.5135C715.421 71.782 715.076 71.9162 714.671 71.9162ZM722.682 83.1918C721.672 83.1918 720.803 82.9872 720.074 82.5781C719.35 82.1648 718.792 81.581 718.4 80.8267C718.007 80.0682 717.811 79.1712 717.811 78.1357C717.811 77.1257 718.007 76.2393 718.4 75.4766C718.792 74.7138 719.343 74.1193 720.055 73.6932C720.771 73.267 721.61 73.054 722.574 73.054C723.221 73.054 723.824 73.1584 724.382 73.3672C724.945 73.5717 725.435 73.8807 725.853 74.294C726.275 74.7074 726.603 75.2273 726.837 75.8537C727.071 76.4759 727.189 77.2045 727.189 78.0398V78.7876H718.898V77.1001H724.625C724.625 76.7081 724.54 76.3608 724.37 76.0582C724.199 75.7557 723.963 75.5192 723.66 75.3487C723.362 75.174 723.015 75.0866 722.618 75.0866C722.205 75.0866 721.838 75.1825 721.519 75.3743C721.203 75.5618 720.956 75.8153 720.777 76.1349C720.598 76.4503 720.507 76.8018 720.502 77.1896V78.794C720.502 79.2798 720.592 79.6996 720.771 80.0533C720.954 80.407 721.212 80.6797 721.544 80.8714C721.877 81.0632 722.271 81.1591 722.727 81.1591C723.029 81.1591 723.306 81.1165 723.558 81.0312C723.809 80.946 724.025 80.8182 724.203 80.6477C724.382 80.4773 724.519 80.2685 724.613 80.0213L727.131 80.1875C727.003 80.7926 726.741 81.321 726.345 81.7727C725.953 82.2202 725.446 82.5696 724.824 82.821C724.206 83.0682 723.492 83.1918 722.682 83.1918ZM732.583 83.1598C731.838 83.1598 731.162 82.968 730.557 82.5845C729.956 82.1967 729.479 81.6278 729.125 80.8778C728.776 80.1236 728.601 79.1989 728.601 78.1037C728.601 76.9787 728.782 76.0433 729.145 75.2976C729.507 74.5476 729.988 73.9872 730.589 73.6165C731.194 73.2415 731.857 73.054 732.577 73.054C733.127 73.054 733.585 73.1477 733.951 73.3352C734.322 73.5185 734.62 73.7486 734.846 74.0256C735.076 74.2983 735.251 74.5668 735.37 74.831H735.453V69.9091H738.17V83H735.485V81.4276H735.37C735.243 81.7003 735.061 81.9709 734.827 82.2393C734.597 82.5036 734.297 82.723 733.926 82.8977C733.559 83.0724 733.112 83.1598 732.583 83.1598ZM733.446 80.9929C733.885 80.9929 734.256 80.8736 734.559 80.6349C734.865 80.392 735.1 80.0533 735.262 79.6186C735.428 79.1839 735.511 78.6747 735.511 78.0909C735.511 77.5071 735.43 77 735.268 76.5696C735.106 76.1392 734.872 75.8068 734.565 75.5724C734.258 75.3381 733.885 75.2209 733.446 75.2209C732.999 75.2209 732.622 75.3423 732.315 75.5852C732.008 75.8281 731.776 76.1648 731.618 76.5952C731.461 77.0256 731.382 77.5241 731.382 78.0909C731.382 78.6619 731.461 79.1669 731.618 79.6058C731.78 80.0405 732.012 80.3814 732.315 80.6286C732.622 80.8714 732.999 80.9929 733.446 80.9929ZM743.209 83.1854C742.582 83.1854 742.024 83.0767 741.534 82.8594C741.044 82.6378 740.656 82.3118 740.371 81.8814C740.089 81.4467 739.949 80.9055 739.949 80.2578C739.949 79.7124 740.049 79.2543 740.249 78.8835C740.449 78.5128 740.722 78.2145 741.067 77.9886C741.412 77.7628 741.805 77.5923 742.243 77.4773C742.687 77.3622 743.151 77.2812 743.637 77.2344C744.208 77.1747 744.668 77.1193 745.018 77.0682C745.367 77.0128 745.621 76.9318 745.778 76.8253C745.936 76.7187 746.015 76.5611 746.015 76.3523V76.3139C746.015 75.9091 745.887 75.5959 745.631 75.3743C745.38 75.1527 745.022 75.0419 744.557 75.0419C744.067 75.0419 743.677 75.1506 743.388 75.3679C743.098 75.581 742.906 75.8494 742.812 76.1733L740.294 75.9688C740.422 75.3722 740.673 74.8565 741.048 74.4219C741.423 73.983 741.907 73.6463 742.499 73.4119C743.096 73.1733 743.786 73.054 744.57 73.054C745.116 73.054 745.638 73.1179 746.136 73.2457C746.639 73.3736 747.084 73.5717 747.472 73.8402C747.864 74.1087 748.173 74.4538 748.399 74.8757C748.625 75.2933 748.738 75.794 748.738 76.3778V83H746.155V81.6385H746.079C745.921 81.9453 745.71 82.2159 745.446 82.4503C745.182 82.6804 744.864 82.8615 744.493 82.9936C744.123 83.1214 743.694 83.1854 743.209 83.1854ZM743.988 81.3061C744.389 81.3061 744.743 81.2273 745.05 81.0696C745.356 80.9077 745.597 80.6903 745.772 80.4176C745.947 80.1449 746.034 79.8359 746.034 79.4908V78.4489C745.949 78.5043 745.831 78.5554 745.682 78.6023C745.537 78.6449 745.373 78.6854 745.19 78.7237C745.007 78.7578 744.824 78.7898 744.64 78.8196C744.457 78.8452 744.291 78.8686 744.142 78.8899C743.822 78.9368 743.543 79.0114 743.305 79.1136C743.066 79.2159 742.881 79.3544 742.748 79.5291C742.616 79.6996 742.55 79.9126 742.55 80.1683C742.55 80.5391 742.684 80.8224 742.953 81.0185C743.226 81.2102 743.571 81.3061 743.988 81.3061ZM754.468 83.1598C753.722 83.1598 753.047 82.968 752.442 82.5845C751.841 82.1967 751.364 81.6278 751.01 80.8778C750.661 80.1236 750.486 79.1989 750.486 78.1037C750.486 76.9787 750.667 76.0433 751.029 75.2976C751.392 74.5476 751.873 73.9872 752.474 73.6165C753.079 73.2415 753.742 73.054 754.462 73.054C755.012 73.054 755.47 73.1477 755.836 73.3352C756.207 73.5185 756.505 73.7486 756.731 74.0256C756.961 74.2983 757.136 74.5668 757.255 74.831H757.338V69.9091H760.055V83H757.37V81.4276H757.255C757.127 81.7003 756.946 81.9709 756.712 82.2393C756.482 82.5036 756.181 82.723 755.811 82.8977C755.444 83.0724 754.997 83.1598 754.468 83.1598ZM755.331 80.9929C755.77 80.9929 756.141 80.8736 756.443 80.6349C756.75 80.392 756.985 80.0533 757.146 79.6186C757.313 79.1839 757.396 78.6747 757.396 78.0909C757.396 77.5071 757.315 77 757.153 76.5696C756.991 76.1392 756.757 75.8068 756.45 75.5724C756.143 75.3381 755.77 75.2209 755.331 75.2209C754.884 75.2209 754.507 75.3423 754.2 75.5852C753.893 75.8281 753.661 76.1648 753.503 76.5952C753.345 77.0256 753.267 77.5241 753.267 78.0909C753.267 78.6619 753.345 79.1669 753.503 79.6058C753.665 80.0405 753.897 80.3814 754.2 80.6286C754.507 80.8714 754.884 80.9929 755.331 80.9929ZM766.768 83.1918C765.758 83.1918 764.889 82.9872 764.16 82.5781C763.436 82.1648 762.877 81.581 762.485 80.8267C762.093 80.0682 761.897 79.1712 761.897 78.1357C761.897 77.1257 762.093 76.2393 762.485 75.4766C762.877 74.7138 763.429 74.1193 764.141 73.6932C764.857 73.267 765.696 73.054 766.659 73.054C767.307 73.054 767.91 73.1584 768.468 73.3672C769.031 73.5717 769.521 73.8807 769.939 74.294C770.36 74.7074 770.689 75.2273 770.923 75.8537C771.157 76.4759 771.275 77.2045 771.275 78.0398V78.7876H762.984V77.1001H768.711C768.711 76.7081 768.626 76.3608 768.456 76.0582C768.285 75.7557 768.049 75.5192 767.746 75.3487C767.448 75.174 767.1 75.0866 766.704 75.0866C766.291 75.0866 765.924 75.1825 765.605 75.3743C765.289 75.5618 765.042 75.8153 764.863 76.1349C764.684 76.4503 764.593 76.8018 764.588 77.1896V78.794C764.588 79.2798 764.678 79.6996 764.857 80.0533C765.04 80.407 765.298 80.6797 765.63 80.8714C765.963 81.0632 766.357 81.1591 766.813 81.1591C767.115 81.1591 767.392 81.1165 767.644 81.0312C767.895 80.946 768.11 80.8182 768.289 80.6477C768.468 80.4773 768.605 80.2685 768.699 80.0213L771.217 80.1875C771.089 80.7926 770.827 81.321 770.431 81.7727C770.039 82.2202 769.532 82.5696 768.909 82.821C768.292 83.0682 767.578 83.1918 766.768 83.1918ZM680.567 105.205C679.748 105.205 679.026 104.998 678.4 104.585C677.773 104.167 677.283 103.579 676.93 102.82C676.576 102.058 676.399 101.156 676.399 100.116C676.399 99.0852 676.576 98.1903 676.93 97.4318C677.283 96.6733 677.775 96.0874 678.406 95.674C679.037 95.2607 679.765 95.054 680.592 95.054C681.231 95.054 681.736 95.1605 682.107 95.3736C682.482 95.5824 682.768 95.821 682.964 96.0895C683.164 96.3537 683.319 96.571 683.43 96.7415H683.558V91.9091H685.067V105H683.609V103.491H683.43C683.319 103.67 683.162 103.896 682.957 104.169C682.753 104.437 682.461 104.678 682.081 104.891C681.702 105.1 681.197 105.205 680.567 105.205ZM680.771 103.849C681.376 103.849 681.888 103.692 682.305 103.376C682.723 103.057 683.04 102.616 683.258 102.053C683.475 101.487 683.584 100.832 683.584 100.091C683.584 99.358 683.477 98.7166 683.264 98.1669C683.051 97.6129 682.736 97.1825 682.318 96.8757C681.9 96.5646 681.385 96.4091 680.771 96.4091C680.132 96.4091 679.599 96.5732 679.173 96.9013C678.751 97.2251 678.434 97.6662 678.221 98.2244C678.012 98.7784 677.907 99.4006 677.907 100.091C677.907 100.79 678.014 101.425 678.227 101.996C678.444 102.562 678.764 103.014 679.186 103.351C679.612 103.683 680.14 103.849 680.771 103.849ZM692.155 105.205C691.209 105.205 690.393 104.996 689.707 104.578C689.025 104.156 688.499 103.568 688.128 102.814C687.762 102.055 687.579 101.173 687.579 100.168C687.579 99.1619 687.762 98.2756 688.128 97.5085C688.499 96.7372 689.015 96.1364 689.675 95.706C690.34 95.2713 691.116 95.054 692.002 95.054C692.513 95.054 693.018 95.1392 693.517 95.3097C694.015 95.4801 694.469 95.7571 694.878 96.1406C695.287 96.5199 695.613 97.0227 695.856 97.6491C696.099 98.2756 696.221 99.0469 696.221 99.9631V100.602H688.653V99.2983H694.687C694.687 98.7443 694.576 98.25 694.354 97.8153C694.137 97.3807 693.826 97.0376 693.421 96.7862C693.02 96.5348 692.547 96.4091 692.002 96.4091C691.401 96.4091 690.881 96.5582 690.442 96.8565C690.008 97.1506 689.673 97.5341 689.439 98.0071C689.204 98.4801 689.087 98.9872 689.087 99.5284V100.398C689.087 101.139 689.215 101.768 689.471 102.283C689.731 102.795 690.091 103.185 690.551 103.453C691.011 103.717 691.546 103.849 692.155 103.849C692.552 103.849 692.91 103.794 693.229 103.683C693.553 103.568 693.832 103.398 694.067 103.172C694.301 102.942 694.482 102.656 694.61 102.315L696.067 102.724C695.914 103.219 695.656 103.653 695.294 104.028C694.932 104.399 694.484 104.689 693.952 104.898C693.419 105.102 692.82 105.205 692.155 105.205ZM703.578 108.682V95.1818H705.035V96.7415H705.214C705.325 96.571 705.479 96.3537 705.675 96.0895C705.875 95.821 706.16 95.5824 706.531 95.3736C706.906 95.1605 707.413 95.054 708.052 95.054C708.879 95.054 709.608 95.2607 710.238 95.674C710.869 96.0874 711.361 96.6733 711.715 97.4318C712.069 98.1903 712.246 99.0852 712.246 100.116C712.246 101.156 712.069 102.058 711.715 102.82C711.361 103.579 710.871 104.167 710.245 104.585C709.618 104.998 708.896 105.205 708.078 105.205C707.447 105.205 706.942 105.1 706.563 104.891C706.184 104.678 705.892 104.437 705.687 104.169C705.483 103.896 705.325 103.67 705.214 103.491H705.086V108.682H703.578ZM705.061 100.091C705.061 100.832 705.17 101.487 705.387 102.053C705.604 102.616 705.922 103.057 706.339 103.376C706.757 103.692 707.268 103.849 707.873 103.849C708.504 103.849 709.03 103.683 709.452 103.351C709.878 103.014 710.198 102.562 710.411 101.996C710.628 101.425 710.737 100.79 710.737 100.091C710.737 99.4006 710.631 98.7784 710.417 98.2244C710.209 97.6662 709.891 97.2251 709.465 96.9013C709.043 96.5732 708.513 96.4091 707.873 96.4091C707.26 96.4091 706.744 96.5646 706.327 96.8757C705.909 97.1825 705.594 97.6129 705.381 98.1669C705.167 98.7166 705.061 99.358 705.061 100.091ZM714.547 105V95.1818H716.004V96.6648H716.106C716.285 96.179 716.609 95.7848 717.078 95.4822C717.547 95.1797 718.075 95.0284 718.663 95.0284C718.774 95.0284 718.912 95.0305 719.079 95.0348C719.245 95.0391 719.371 95.0455 719.456 95.054V96.5881C719.405 96.5753 719.287 96.5561 719.104 96.5305C718.925 96.5007 718.736 96.4858 718.535 96.4858C718.058 96.4858 717.632 96.5859 717.257 96.7862C716.886 96.9822 716.592 97.255 716.375 97.6044C716.162 97.9496 716.055 98.3437 716.055 98.7869V105H714.547ZM724.934 105.205C724.047 105.205 723.27 104.994 722.601 104.572C721.936 104.15 721.416 103.56 721.041 102.801C720.67 102.043 720.485 101.156 720.485 100.142C720.485 99.1193 720.67 98.2266 721.041 97.4638C721.416 96.701 721.936 96.1087 722.601 95.6868C723.27 95.2649 724.047 95.054 724.934 95.054C725.82 95.054 726.596 95.2649 727.26 95.6868C727.93 96.1087 728.449 96.701 728.82 97.4638C729.195 98.2266 729.383 99.1193 729.383 100.142C729.383 101.156 729.195 102.043 728.82 102.801C728.449 103.56 727.93 104.15 727.26 104.572C726.596 104.994 725.82 105.205 724.934 105.205ZM724.934 103.849C725.607 103.849 726.161 103.677 726.596 103.332C727.03 102.987 727.352 102.533 727.561 101.97C727.77 101.408 727.874 100.798 727.874 100.142C727.874 99.4858 727.77 98.8743 727.561 98.3075C727.352 97.7408 727.03 97.2827 726.596 96.9332C726.161 96.5838 725.607 96.4091 724.934 96.4091C724.26 96.4091 723.706 96.5838 723.272 96.9332C722.837 97.2827 722.515 97.7408 722.307 98.3075C722.098 98.8743 721.993 99.4858 721.993 100.142C721.993 100.798 722.098 101.408 722.307 101.97C722.515 102.533 722.837 102.987 723.272 103.332C723.706 103.677 724.26 103.849 724.934 103.849ZM735.393 105.205C734.575 105.205 733.852 104.998 733.226 104.585C732.599 104.167 732.109 103.579 731.756 102.82C731.402 102.058 731.225 101.156 731.225 100.116C731.225 99.0852 731.402 98.1903 731.756 97.4318C732.109 96.6733 732.602 96.0874 733.232 95.674C733.863 95.2607 734.592 95.054 735.418 95.054C736.058 95.054 736.563 95.1605 736.933 95.3736C737.308 95.5824 737.594 95.821 737.79 96.0895C737.99 96.3537 738.146 96.571 738.256 96.7415H738.384V91.9091H739.893V105H738.435V103.491H738.256C738.146 103.67 737.988 103.896 737.783 104.169C737.579 104.437 737.287 104.678 736.908 104.891C736.528 105.1 736.023 105.205 735.393 105.205ZM735.597 103.849C736.202 103.849 736.714 103.692 737.131 103.376C737.549 103.057 737.866 102.616 738.084 102.053C738.301 101.487 738.41 100.832 738.41 100.091C738.41 99.358 738.303 98.7166 738.09 98.1669C737.877 97.6129 737.562 97.1825 737.144 96.8757C736.727 96.5646 736.211 96.4091 735.597 96.4091C734.958 96.4091 734.425 96.5732 733.999 96.9013C733.577 97.2251 733.26 97.6662 733.047 98.2244C732.838 98.7784 732.734 99.4006 732.734 100.091C732.734 100.79 732.84 101.425 733.053 101.996C733.271 102.562 733.59 103.014 734.012 103.351C734.438 103.683 734.967 103.849 735.597 103.849ZM749.053 100.986V95.1818H750.561V105H749.053V103.338H748.95C748.72 103.837 748.362 104.261 747.876 104.61C747.391 104.955 746.777 105.128 746.036 105.128C745.422 105.128 744.876 104.994 744.399 104.725C743.922 104.452 743.547 104.043 743.274 103.498C743.001 102.948 742.865 102.256 742.865 101.42V95.1818H744.374V101.318C744.374 102.034 744.574 102.605 744.974 103.031C745.379 103.457 745.895 103.67 746.521 103.67C746.896 103.67 747.278 103.575 747.665 103.383C748.058 103.191 748.386 102.897 748.65 102.501C748.918 102.104 749.053 101.599 749.053 100.986ZM757.594 95.1818V96.4602H752.506V95.1818H757.594ZM753.989 92.8295H755.497V102.188C755.497 102.614 755.559 102.933 755.683 103.146C755.811 103.355 755.972 103.496 756.169 103.568C756.369 103.636 756.58 103.67 756.801 103.67C756.968 103.67 757.104 103.662 757.21 103.645C757.317 103.624 757.402 103.607 757.466 103.594L757.773 104.949C757.671 104.987 757.528 105.026 757.345 105.064C757.161 105.107 756.929 105.128 756.648 105.128C756.222 105.128 755.804 105.036 755.395 104.853C754.99 104.67 754.654 104.391 754.385 104.016C754.121 103.641 753.989 103.168 753.989 102.597V92.8295ZM763.746 105.205C762.86 105.205 762.082 104.994 761.413 104.572C760.748 104.15 760.229 103.56 759.854 102.801C759.483 102.043 759.297 101.156 759.297 100.142C759.297 99.1193 759.483 98.2266 759.854 97.4638C760.229 96.701 760.748 96.1087 761.413 95.6868C762.082 95.2649 762.86 95.054 763.746 95.054C764.633 95.054 765.408 95.2649 766.073 95.6868C766.742 96.1087 767.262 96.701 767.633 97.4638C768.008 98.2266 768.195 99.1193 768.195 100.142C768.195 101.156 768.008 102.043 767.633 102.801C767.262 103.56 766.742 104.15 766.073 104.572C765.408 104.994 764.633 105.205 763.746 105.205ZM763.746 103.849C764.42 103.849 764.974 103.677 765.408 103.332C765.843 102.987 766.165 102.533 766.373 101.97C766.582 101.408 766.687 100.798 766.687 100.142C766.687 99.4858 766.582 98.8743 766.373 98.3075C766.165 97.7408 765.843 97.2827 765.408 96.9332C764.974 96.5838 764.42 96.4091 763.746 96.4091C763.073 96.4091 762.519 96.5838 762.084 96.9332C761.65 97.2827 761.328 97.7408 761.119 98.3075C760.91 98.8743 760.806 99.4858 760.806 100.142C760.806 100.798 760.91 101.408 761.119 101.97C761.328 102.533 761.65 102.987 762.084 103.332C762.519 103.677 763.073 103.849 763.746 103.849ZM777.452 97.3807L776.097 97.7642C776.012 97.5384 775.886 97.3189 775.72 97.1058C775.558 96.8885 775.337 96.7095 775.055 96.5689C774.774 96.4283 774.414 96.358 773.975 96.358C773.374 96.358 772.874 96.4964 772.473 96.7734C772.077 97.0462 771.879 97.3935 771.879 97.8153C771.879 98.1903 772.015 98.4865 772.288 98.7038C772.56 98.9212 772.987 99.1023 773.566 99.2472L775.023 99.6051C775.901 99.8182 776.555 100.144 776.986 100.583C777.416 101.018 777.631 101.578 777.631 102.264C777.631 102.827 777.469 103.33 777.146 103.773C776.826 104.216 776.379 104.565 775.803 104.821C775.228 105.077 774.559 105.205 773.796 105.205C772.795 105.205 771.966 104.987 771.31 104.553C770.653 104.118 770.238 103.483 770.063 102.648L771.495 102.29C771.631 102.818 771.889 103.214 772.268 103.479C772.652 103.743 773.153 103.875 773.771 103.875C774.474 103.875 775.032 103.726 775.445 103.428C775.863 103.125 776.072 102.763 776.072 102.341C776.072 102 775.952 101.714 775.714 101.484C775.475 101.25 775.109 101.075 774.614 100.96L772.978 100.577C772.079 100.364 771.418 100.033 770.996 99.5859C770.579 99.1342 770.37 98.5696 770.37 97.892C770.37 97.3381 770.526 96.848 770.837 96.4219C771.152 95.9957 771.58 95.6612 772.121 95.4183C772.667 95.1754 773.285 95.054 773.975 95.054C774.947 95.054 775.71 95.267 776.263 95.6932C776.822 96.1193 777.218 96.6818 777.452 97.3807Z" fill="black"/>
<path d="M983.154 83V69.9091H988.319C989.312 69.9091 990.158 70.0987 990.857 70.478C991.556 70.853 992.088 71.375 992.455 72.044C992.826 72.7088 993.011 73.4759 993.011 74.3452C993.011 75.2145 992.823 75.9815 992.448 76.6463C992.073 77.3111 991.53 77.8288 990.818 78.1996C990.111 78.5703 989.255 78.7557 988.249 78.7557H984.957V76.5376H987.801C988.334 76.5376 988.773 76.446 989.118 76.2628C989.468 76.0753 989.728 75.8175 989.898 75.4893C990.073 75.157 990.16 74.7756 990.16 74.3452C990.16 73.9105 990.073 73.5312 989.898 73.2074C989.728 72.8793 989.468 72.6257 989.118 72.4467C988.769 72.2635 988.326 72.1719 987.789 72.1719H985.922V83H983.154ZM997.294 83.1854C996.667 83.1854 996.109 83.0767 995.619 82.8594C995.129 82.6378 994.741 82.3118 994.456 81.8814C994.174 81.4467 994.034 80.9055 994.034 80.2578C994.034 79.7124 994.134 79.2543 994.334 78.8835C994.534 78.5128 994.807 78.2145 995.152 77.9886C995.497 77.7628 995.889 77.5923 996.328 77.4773C996.772 77.3622 997.236 77.2812 997.722 77.2344C998.293 77.1747 998.753 77.1193 999.103 77.0682C999.452 77.0128 999.706 76.9318 999.863 76.8253C1000.02 76.7187 1000.1 76.5611 1000.1 76.3523V76.3139C1000.1 75.9091 999.972 75.5959 999.716 75.3743C999.465 75.1527 999.107 75.0419 998.642 75.0419C998.152 75.0419 997.762 75.1506 997.473 75.3679C997.183 75.581 996.991 75.8494 996.897 76.1733L994.379 75.9688C994.507 75.3722 994.758 74.8565 995.133 74.4219C995.508 73.983 995.992 73.6463 996.584 73.4119C997.181 73.1733 997.871 73.054 998.655 73.054C999.201 73.054 999.723 73.1179 1000.22 73.2457C1000.72 73.3736 1001.17 73.5717 1001.56 73.8402C1001.95 74.1087 1002.26 74.4538 1002.48 74.8757C1002.71 75.2933 1002.82 75.794 1002.82 76.3778V83H1000.24V81.6385H1000.16C1000.01 81.9453 999.795 82.2159 999.531 82.4503C999.267 82.6804 998.949 82.8615 998.578 82.9936C998.208 83.1214 997.779 83.1854 997.294 83.1854ZM998.073 81.3061C998.474 81.3061 998.828 81.2273 999.134 81.0696C999.441 80.9077 999.682 80.6903 999.857 80.4176C1000.03 80.1449 1000.12 79.8359 1000.12 79.4908V78.4489C1000.03 78.5043 999.916 78.5554 999.767 78.6023C999.622 78.6449 999.458 78.6854 999.275 78.7237C999.092 78.7578 998.909 78.7898 998.725 78.8196C998.542 78.8452 998.376 78.8686 998.227 78.8899C997.907 78.9368 997.628 79.0114 997.389 79.1136C997.151 79.2159 996.965 79.3544 996.833 79.5291C996.701 79.6996 996.635 79.9126 996.635 80.1683C996.635 80.5391 996.769 80.8224 997.038 81.0185C997.311 81.2102 997.656 81.3061 998.073 81.3061ZM1009.36 86.8864C1008.48 86.8864 1007.72 86.7649 1007.09 86.522C1006.46 86.2834 1005.96 85.9574 1005.59 85.544C1005.22 85.1307 1004.98 84.6662 1004.87 84.1506L1007.39 83.8118C1007.47 84.0078 1007.59 84.1911 1007.75 84.3615C1007.92 84.532 1008.14 84.6683 1008.41 84.7706C1008.69 84.8771 1009.03 84.9304 1009.42 84.9304C1010.01 84.9304 1010.5 84.7855 1010.89 84.4957C1011.27 84.2102 1011.47 83.7308 1011.47 83.0575V81.2614H1011.35C1011.23 81.5341 1011.05 81.7919 1010.82 82.0348C1010.58 82.2777 1010.27 82.4759 1009.9 82.6293C1009.52 82.7827 1009.07 82.8594 1008.55 82.8594C1007.82 82.8594 1007.14 82.6889 1006.54 82.348C1005.94 82.0028 1005.46 81.4766 1005.1 80.7692C1004.75 80.0575 1004.57 79.1584 1004.57 78.0717C1004.57 76.9595 1004.75 76.0305 1005.11 75.2848C1005.48 74.5391 1005.96 73.9808 1006.56 73.6101C1007.16 73.2393 1007.83 73.054 1008.55 73.054C1009.1 73.054 1009.56 73.1477 1009.93 73.3352C1010.3 73.5185 1010.6 73.7486 1010.82 74.0256C1011.05 74.2983 1011.23 74.5668 1011.35 74.831H1011.46V73.1818H1014.16V83.0959C1014.16 83.9311 1013.95 84.63 1013.55 85.1925C1013.14 85.755 1012.57 86.1768 1011.85 86.4581C1011.12 86.7436 1010.3 86.8864 1009.36 86.8864ZM1009.42 80.8139C1009.86 80.8139 1010.23 80.7053 1010.53 80.4879C1010.84 80.2663 1011.07 79.951 1011.23 79.5419C1011.4 79.1286 1011.48 78.6342 1011.48 78.0589C1011.48 77.4837 1011.4 76.9851 1011.24 76.5632C1011.08 76.1371 1010.84 75.8068 1010.53 75.5724C1010.23 75.3381 1009.86 75.2209 1009.42 75.2209C1008.97 75.2209 1008.59 75.3423 1008.28 75.5852C1007.98 75.8239 1007.75 76.1562 1007.59 76.5824C1007.43 77.0085 1007.35 77.5007 1007.35 78.0589C1007.35 78.6257 1007.43 79.1158 1007.59 79.5291C1007.75 79.9382 1007.98 80.2557 1008.28 80.4815C1008.59 80.7031 1008.97 80.8139 1009.42 80.8139ZM1019.13 83.1854C1018.5 83.1854 1017.94 83.0767 1017.45 82.8594C1016.96 82.6378 1016.57 82.3118 1016.29 81.8814C1016.01 81.4467 1015.87 80.9055 1015.87 80.2578C1015.87 79.7124 1015.97 79.2543 1016.17 78.8835C1016.37 78.5128 1016.64 78.2145 1016.98 77.9886C1017.33 77.7628 1017.72 77.5923 1018.16 77.4773C1018.6 77.3622 1019.07 77.2812 1019.55 77.2344C1020.12 77.1747 1020.59 77.1193 1020.93 77.0682C1021.28 77.0128 1021.54 76.9318 1021.7 76.8253C1021.85 76.7187 1021.93 76.5611 1021.93 76.3523V76.3139C1021.93 75.9091 1021.8 75.5959 1021.55 75.3743C1021.3 75.1527 1020.94 75.0419 1020.47 75.0419C1019.98 75.0419 1019.59 75.1506 1019.3 75.3679C1019.01 75.581 1018.82 75.8494 1018.73 76.1733L1016.21 75.9688C1016.34 75.3722 1016.59 74.8565 1016.97 74.4219C1017.34 73.983 1017.82 73.6463 1018.42 73.4119C1019.01 73.1733 1019.7 73.054 1020.49 73.054C1021.03 73.054 1021.55 73.1179 1022.05 73.2457C1022.56 73.3736 1023 73.5717 1023.39 73.8402C1023.78 74.1087 1024.09 74.4538 1024.32 74.8757C1024.54 75.2933 1024.65 75.794 1024.65 76.3778V83H1022.07V81.6385H1022C1021.84 81.9453 1021.63 82.2159 1021.36 82.4503C1021.1 82.6804 1020.78 82.8615 1020.41 82.9936C1020.04 83.1214 1019.61 83.1854 1019.13 83.1854ZM1019.91 81.3061C1020.31 81.3061 1020.66 81.2273 1020.97 81.0696C1021.27 80.9077 1021.51 80.6903 1021.69 80.4176C1021.86 80.1449 1021.95 79.8359 1021.95 79.4908V78.4489C1021.87 78.5043 1021.75 78.5554 1021.6 78.6023C1021.45 78.6449 1021.29 78.6854 1021.11 78.7237C1020.92 78.7578 1020.74 78.7898 1020.56 78.8196C1020.37 78.8452 1020.21 78.8686 1020.06 78.8899C1019.74 78.9368 1019.46 79.0114 1019.22 79.1136C1018.98 79.2159 1018.8 79.3544 1018.67 79.5291C1018.53 79.6996 1018.47 79.9126 1018.47 80.1683C1018.47 80.5391 1018.6 80.8224 1018.87 81.0185C1019.14 81.2102 1019.49 81.3061 1019.91 81.3061ZM1026.77 83V73.1818H1029.36V74.9141H1029.48C1029.68 74.3388 1030.02 73.8849 1030.5 73.5526C1030.98 73.2202 1031.55 73.054 1032.21 73.054C1032.89 73.054 1033.46 73.2223 1033.93 73.5589C1034.41 73.8913 1034.72 74.343 1034.88 74.9141H1034.98C1035.18 74.3516 1035.54 73.902 1036.07 73.5653C1036.6 73.2244 1037.22 73.054 1037.94 73.054C1038.86 73.054 1039.6 73.3459 1040.17 73.9297C1040.75 74.5092 1041.03 75.3317 1041.03 76.397V83H1038.32V76.9339C1038.32 76.3885 1038.17 75.9794 1037.88 75.7067C1037.59 75.4339 1037.23 75.2976 1036.8 75.2976C1036.3 75.2976 1035.92 75.4553 1035.64 75.7706C1035.36 76.0817 1035.22 76.4929 1035.22 77.0043V83H1032.58V76.8764C1032.58 76.3949 1032.45 76.0114 1032.17 75.7259C1031.9 75.4403 1031.54 75.2976 1031.09 75.2976C1030.79 75.2976 1030.51 75.3743 1030.27 75.5277C1030.03 75.6768 1029.84 75.8878 1029.7 76.1605C1029.56 76.429 1029.49 76.7443 1029.49 77.1065V83H1026.77ZM1047.66 83.1918C1046.65 83.1918 1045.78 82.9872 1045.05 82.5781C1044.33 82.1648 1043.77 81.581 1043.38 80.8267C1042.98 80.0682 1042.79 79.1712 1042.79 78.1357C1042.79 77.1257 1042.98 76.2393 1043.38 75.4766C1043.77 74.7138 1044.32 74.1193 1045.03 73.6932C1045.75 73.267 1046.59 73.054 1047.55 73.054C1048.2 73.054 1048.8 73.1584 1049.36 73.3672C1049.92 73.5717 1050.41 73.8807 1050.83 74.294C1051.25 74.7074 1051.58 75.2273 1051.81 75.8537C1052.05 76.4759 1052.17 77.2045 1052.17 78.0398V78.7876H1043.88V77.1001H1049.6C1049.6 76.7081 1049.52 76.3608 1049.35 76.0582C1049.18 75.7557 1048.94 75.5192 1048.64 75.3487C1048.34 75.174 1047.99 75.0866 1047.6 75.0866C1047.18 75.0866 1046.82 75.1825 1046.5 75.3743C1046.18 75.5618 1045.93 75.8153 1045.75 76.1349C1045.58 76.4503 1045.48 76.8018 1045.48 77.1896V78.794C1045.48 79.2798 1045.57 79.6996 1045.75 80.0533C1045.93 80.407 1046.19 80.6797 1046.52 80.8714C1046.85 81.0632 1047.25 81.1591 1047.7 81.1591C1048.01 81.1591 1048.28 81.1165 1048.54 81.0312C1048.79 80.946 1049 80.8182 1049.18 80.6477C1049.36 80.4773 1049.5 80.2685 1049.59 80.0213L1052.11 80.1875C1051.98 80.7926 1051.72 81.321 1051.32 81.7727C1050.93 82.2202 1050.42 82.5696 1049.8 82.821C1049.18 83.0682 1048.47 83.1918 1047.66 83.1918ZM1056.67 77.3239V83H1053.94V73.1818H1056.54V74.9141H1056.65C1056.87 74.343 1057.23 73.8913 1057.75 73.5589C1058.26 73.2223 1058.88 73.054 1059.61 73.054C1060.29 73.054 1060.88 73.2031 1061.39 73.5014C1061.9 73.7997 1062.29 74.2259 1062.57 74.7798C1062.85 75.3295 1062.99 75.9858 1062.99 76.7486V83H1060.27V77.2344C1060.28 76.6335 1060.12 76.1648 1059.81 75.8281C1059.5 75.4872 1059.07 75.3168 1058.53 75.3168C1058.16 75.3168 1057.84 75.3956 1057.55 75.5533C1057.28 75.7109 1057.06 75.9411 1056.9 76.2436C1056.75 76.5419 1056.67 76.902 1056.67 77.3239ZM1070.36 73.1818V75.2273H1064.45V73.1818H1070.36ZM1065.79 70.8295H1068.52V79.983C1068.52 80.2344 1068.55 80.4304 1068.63 80.571C1068.71 80.7074 1068.81 80.8033 1068.95 80.8587C1069.09 80.9141 1069.25 80.9418 1069.44 80.9418C1069.56 80.9418 1069.69 80.9311 1069.82 80.9098C1069.95 80.8842 1070.05 80.8651 1070.11 80.8523L1070.54 82.8786C1070.41 82.9212 1070.21 82.9702 1069.97 83.0256C1069.72 83.0852 1069.42 83.1214 1069.07 83.1342C1068.41 83.1598 1067.83 83.0724 1067.34 82.8722C1066.85 82.6719 1066.47 82.3608 1066.2 81.9389C1065.92 81.517 1065.79 80.9844 1065.79 80.3409V70.8295ZM1076.47 83.1918C1075.47 83.1918 1074.62 82.9808 1073.89 82.5589C1073.17 82.1328 1072.61 81.5405 1072.22 80.782C1071.83 80.0192 1071.63 79.1349 1071.63 78.1293C1071.63 77.1151 1071.83 76.2287 1072.22 75.4702C1072.61 74.7074 1073.17 74.1151 1073.89 73.6932C1074.62 73.267 1075.47 73.054 1076.47 73.054C1077.46 73.054 1078.32 73.267 1079.04 73.6932C1079.76 74.1151 1080.32 74.7074 1080.71 75.4702C1081.1 76.2287 1081.3 77.1151 1081.3 78.1293C1081.3 79.1349 1081.1 80.0192 1080.71 80.782C1080.32 81.5405 1079.76 82.1328 1079.04 82.5589C1078.32 82.9808 1077.46 83.1918 1076.47 83.1918ZM1076.48 81.0824C1076.93 81.0824 1077.31 80.9545 1077.61 80.6989C1077.91 80.4389 1078.14 80.0852 1078.3 79.6378C1078.45 79.1903 1078.53 78.6811 1078.53 78.1101C1078.53 77.5391 1078.45 77.0298 1078.3 76.5824C1078.14 76.1349 1077.91 75.7812 1077.61 75.5213C1077.31 75.2614 1076.93 75.1314 1076.48 75.1314C1076.02 75.1314 1075.64 75.2614 1075.33 75.5213C1075.02 75.7812 1074.79 76.1349 1074.63 76.5824C1074.48 77.0298 1074.4 77.5391 1074.4 78.1101C1074.4 78.6811 1074.48 79.1903 1074.63 79.6378C1074.79 80.0852 1075.02 80.4389 1075.33 80.6989C1075.64 80.9545 1076.02 81.0824 1076.48 81.0824ZM1011.11 97.3807L1009.76 97.7642C1009.67 97.5384 1009.55 97.3189 1009.38 97.1058C1009.22 96.8885 1009 96.7095 1008.71 96.5689C1008.43 96.4283 1008.07 96.358 1007.63 96.358C1007.03 96.358 1006.53 96.4964 1006.13 96.7734C1005.74 97.0462 1005.54 97.3935 1005.54 97.8153C1005.54 98.1903 1005.67 98.4865 1005.95 98.7038C1006.22 98.9212 1006.65 99.1023 1007.23 99.2472L1008.68 99.6051C1009.56 99.8182 1010.21 100.144 1010.64 100.583C1011.08 101.018 1011.29 101.578 1011.29 102.264C1011.29 102.827 1011.13 103.33 1010.8 103.773C1010.49 104.216 1010.04 104.565 1009.46 104.821C1008.89 105.077 1008.22 105.205 1007.46 105.205C1006.45 105.205 1005.63 104.987 1004.97 104.553C1004.31 104.118 1003.9 103.483 1003.72 102.648L1005.15 102.29C1005.29 102.818 1005.55 103.214 1005.93 103.479C1006.31 103.743 1006.81 103.875 1007.43 103.875C1008.13 103.875 1008.69 103.726 1009.1 103.428C1009.52 103.125 1009.73 102.763 1009.73 102.341C1009.73 102 1009.61 101.714 1009.37 101.484C1009.13 101.25 1008.77 101.075 1008.27 100.96L1006.64 100.577C1005.74 100.364 1005.08 100.033 1004.66 99.5859C1004.24 99.1342 1004.03 98.5696 1004.03 97.892C1004.03 97.3381 1004.18 96.848 1004.5 96.4219C1004.81 95.9957 1005.24 95.6612 1005.78 95.4183C1006.33 95.1754 1006.94 95.054 1007.63 95.054C1008.61 95.054 1009.37 95.267 1009.92 95.6932C1010.48 96.1193 1010.88 96.6818 1011.11 97.3807ZM1017.68 105.205C1016.73 105.205 1015.92 104.996 1015.23 104.578C1014.55 104.156 1014.02 103.568 1013.65 102.814C1013.28 102.055 1013.1 101.173 1013.1 100.168C1013.1 99.1619 1013.28 98.2756 1013.65 97.5085C1014.02 96.7372 1014.54 96.1364 1015.2 95.706C1015.86 95.2713 1016.64 95.054 1017.52 95.054C1018.04 95.054 1018.54 95.1392 1019.04 95.3097C1019.54 95.4801 1019.99 95.7571 1020.4 96.1406C1020.81 96.5199 1021.14 97.0227 1021.38 97.6491C1021.62 98.2756 1021.74 99.0469 1021.74 99.9631V100.602H1014.17V99.2983H1020.21C1020.21 98.7443 1020.1 98.25 1019.88 97.8153C1019.66 97.3807 1019.35 97.0376 1018.94 96.7862C1018.54 96.5348 1018.07 96.4091 1017.52 96.4091C1016.92 96.4091 1016.4 96.5582 1015.96 96.8565C1015.53 97.1506 1015.2 97.5341 1014.96 98.0071C1014.73 98.4801 1014.61 98.9872 1014.61 99.5284V100.398C1014.61 101.139 1014.74 101.768 1014.99 102.283C1015.25 102.795 1015.61 103.185 1016.07 103.453C1016.53 103.717 1017.07 103.849 1017.68 103.849C1018.07 103.849 1018.43 103.794 1018.75 103.683C1019.08 103.568 1019.35 103.398 1019.59 103.172C1019.82 102.942 1020 102.656 1020.13 102.315L1021.59 102.724C1021.44 103.219 1021.18 103.653 1020.82 104.028C1020.45 104.399 1020.01 104.689 1019.47 104.898C1018.94 105.102 1018.34 105.205 1017.68 105.205ZM1028 108.886C1027.27 108.886 1026.65 108.793 1026.12 108.605C1025.6 108.422 1025.16 108.179 1024.81 107.876C1024.47 107.578 1024.19 107.259 1023.99 106.918L1025.19 106.074C1025.32 106.253 1025.5 106.457 1025.71 106.688C1025.92 106.922 1026.2 107.124 1026.56 107.295C1026.93 107.469 1027.41 107.557 1028 107.557C1028.79 107.557 1029.45 107.365 1029.96 106.982C1030.48 106.598 1030.74 105.997 1030.74 105.179V103.185H1030.61C1030.5 103.364 1030.34 103.585 1030.14 103.849C1029.94 104.109 1029.65 104.342 1029.27 104.546C1028.89 104.746 1028.38 104.847 1027.75 104.847C1026.95 104.847 1026.24 104.659 1025.61 104.284C1024.98 103.909 1024.49 103.364 1024.12 102.648C1023.76 101.932 1023.58 101.062 1023.58 100.04C1023.58 99.0341 1023.75 98.1584 1024.11 97.4126C1024.46 96.6626 1024.95 96.0831 1025.58 95.674C1026.22 95.2607 1026.94 95.054 1027.77 95.054C1028.41 95.054 1028.92 95.1605 1029.29 95.3736C1029.67 95.5824 1029.96 95.821 1030.16 96.0895C1030.37 96.3537 1030.52 96.571 1030.63 96.7415H1030.79V95.1818H1032.25V105.281C1032.25 106.125 1032.05 106.811 1031.67 107.339C1031.29 107.872 1030.78 108.262 1030.14 108.509C1029.5 108.761 1028.79 108.886 1028 108.886ZM1027.95 103.491C1028.55 103.491 1029.07 103.353 1029.48 103.076C1029.9 102.799 1030.22 102.401 1030.44 101.881C1030.65 101.361 1030.76 100.739 1030.76 100.014C1030.76 99.3068 1030.66 98.6825 1030.44 98.1413C1030.23 97.6001 1029.91 97.1761 1029.5 96.8693C1029.08 96.5625 1028.56 96.4091 1027.95 96.4091C1027.31 96.4091 1026.78 96.571 1026.35 96.8949C1025.93 97.2187 1025.61 97.6534 1025.4 98.1989C1025.19 98.7443 1025.09 99.3494 1025.09 100.014C1025.09 100.696 1025.19 101.299 1025.41 101.823C1025.62 102.343 1025.94 102.752 1026.36 103.05C1026.79 103.344 1027.32 103.491 1027.95 103.491ZM1041.19 100.986V95.1818H1042.7V105H1041.19V103.338H1041.09C1040.86 103.837 1040.5 104.261 1040.02 104.61C1039.53 104.955 1038.92 105.128 1038.18 105.128C1037.56 105.128 1037.02 104.994 1036.54 104.725C1036.06 104.452 1035.69 104.043 1035.42 103.498C1035.14 102.948 1035.01 102.256 1035.01 101.42V95.1818H1036.52V101.318C1036.52 102.034 1036.72 102.605 1037.12 103.031C1037.52 103.457 1038.04 103.67 1038.66 103.67C1039.04 103.67 1039.42 103.575 1039.81 103.383C1040.2 103.191 1040.53 102.897 1040.79 102.501C1041.06 102.104 1041.19 101.599 1041.19 100.986ZM1045.47 105V95.1818H1046.92V96.6648H1047.03C1047.2 96.179 1047.53 95.7848 1048 95.4822C1048.47 95.1797 1048.99 95.0284 1049.58 95.0284C1049.69 95.0284 1049.83 95.0305 1050 95.0348C1050.16 95.0391 1050.29 95.0455 1050.37 95.054V96.5881C1050.32 96.5753 1050.21 96.5561 1050.02 96.5305C1049.84 96.5007 1049.65 96.4858 1049.45 96.4858C1048.98 96.4858 1048.55 96.5859 1048.18 96.7862C1047.81 96.9822 1047.51 97.255 1047.29 97.6044C1047.08 97.9496 1046.97 98.3437 1046.97 98.7869V105H1045.47ZM1055.85 105.205C1054.97 105.205 1054.19 104.994 1053.52 104.572C1052.85 104.15 1052.33 103.56 1051.96 102.801C1051.59 102.043 1051.4 101.156 1051.4 100.142C1051.4 99.1193 1051.59 98.2266 1051.96 97.4638C1052.33 96.701 1052.85 96.1087 1053.52 95.6868C1054.19 95.2649 1054.97 95.054 1055.85 95.054C1056.74 95.054 1057.51 95.2649 1058.18 95.6868C1058.85 96.1087 1059.37 96.701 1059.74 97.4638C1060.11 98.2266 1060.3 99.1193 1060.3 100.142C1060.3 101.156 1060.11 102.043 1059.74 102.801C1059.37 103.56 1058.85 104.15 1058.18 104.572C1057.51 104.994 1056.74 105.205 1055.85 105.205ZM1055.85 103.849C1056.53 103.849 1057.08 103.677 1057.51 103.332C1057.95 102.987 1058.27 102.533 1058.48 101.97C1058.69 101.408 1058.79 100.798 1058.79 100.142C1058.79 99.4858 1058.69 98.8743 1058.48 98.3075C1058.27 97.7408 1057.95 97.2827 1057.51 96.9332C1057.08 96.5838 1056.53 96.4091 1055.85 96.4091C1055.18 96.4091 1054.63 96.5838 1054.19 96.9332C1053.76 97.2827 1053.43 97.7408 1053.23 98.3075C1053.02 98.8743 1052.91 99.4858 1052.91 100.142C1052.91 100.798 1053.02 101.408 1053.23 101.97C1053.43 102.533 1053.76 102.987 1054.19 103.332C1054.63 103.677 1055.18 103.849 1055.85 103.849Z" fill="black"/>
<path d="M448.319 27.6279L432.85 19.164C432.437 18.9357 431.972 18.8159 431.5 18.8159C431.028 18.8159 430.563 18.9357 430.15 19.164L414.681 27.6314C414.239 27.8731 413.871 28.229 413.613 28.6619C413.356 29.0948 413.22 29.5888 413.219 30.0924V46.9041C413.22 47.4076 413.356 47.9017 413.613 48.3346C413.871 48.7674 414.239 49.1233 414.681 49.365L430.15 57.8324C430.563 58.0608 431.028 58.1806 431.5 58.1806C431.972 58.1806 432.437 58.0608 432.85 57.8324L448.319 49.365C448.761 49.1233 449.129 48.7674 449.387 48.3346C449.644 47.9017 449.78 47.4076 449.781 46.9041V30.0941C449.781 29.5897 449.645 29.0946 449.388 28.6607C449.131 28.2268 448.761 27.8701 448.319 27.6279ZM431.5 21.625L445.622 29.3594L440.389 32.2246L426.265 24.4902L431.5 21.625ZM431.5 37.0937L417.378 29.3594L423.337 26.0969L437.459 33.8312L431.5 37.0937ZM416.031 31.8203L430.094 39.516V54.5963L416.031 46.9058V31.8203ZM446.969 46.8988L432.906 54.5963V39.523L438.531 36.4451V42.7187C438.531 43.0917 438.679 43.4494 438.943 43.7131C439.207 43.9768 439.565 44.125 439.938 44.125C440.31 44.125 440.668 43.9768 440.932 43.7131C441.196 43.4494 441.344 43.0917 441.344 42.7187V34.9053L446.969 31.8203V46.8971V46.8988Z" fill="black"/>
<path d="M747.047 32.1017C746.877 31.5768 746.556 31.1136 746.124 30.7698C745.692 30.426 745.169 30.2167 744.619 30.1681L734.18 29.2681L730.087 19.5369C729.874 19.0263 729.515 18.5901 729.055 18.2833C728.594 17.9765 728.053 17.8128 727.5 17.8128C726.947 17.8128 726.406 17.9765 725.945 18.2833C725.485 18.5901 725.126 19.0263 724.912 19.5369L720.833 29.2681L710.381 30.1734C709.829 30.2198 709.303 30.4281 708.869 30.7722C708.435 31.1162 708.112 31.5808 707.941 32.1076C707.77 32.6343 707.758 33.1999 707.907 33.7333C708.057 34.2666 708.36 34.7441 708.779 35.1058L716.709 42.0351L714.332 52.3254C714.207 52.8639 714.242 53.4275 714.435 53.9457C714.628 54.4639 714.97 54.9138 715.417 55.239C715.864 55.5643 716.397 55.7505 716.95 55.7744C717.502 55.7983 718.049 55.6588 718.523 55.3734L727.488 49.9242L736.472 55.3734C736.945 55.6588 737.493 55.7983 738.045 55.7744C738.598 55.7505 739.131 55.5643 739.578 55.239C740.025 54.9138 740.366 54.4639 740.559 53.9457C740.752 53.4275 740.788 52.8639 740.662 52.3254L738.288 42.0246L746.215 35.1058C746.635 34.7429 746.937 34.264 747.085 33.7295C747.233 33.195 747.22 32.6287 747.047 32.1017ZM744.371 32.9806L736.444 39.8994C736.058 40.235 735.771 40.6695 735.614 41.1561C735.456 41.6427 735.434 42.1629 735.551 42.6609L737.933 52.9687L728.955 47.5195C728.517 47.2528 728.015 47.1117 727.502 47.1117C726.989 47.1117 726.486 47.2528 726.048 47.5195L717.083 52.9687L719.449 42.668C719.565 42.17 719.544 41.6497 719.386 41.1631C719.229 40.6765 718.942 40.2421 718.556 39.9064L710.625 32.9912C710.624 32.9859 710.624 32.9806 710.625 32.9754L721.073 32.0719C721.584 32.0269 722.072 31.8435 722.485 31.5415C722.899 31.2394 723.222 30.8302 723.42 30.358L727.5 20.639L731.578 30.358C731.776 30.8302 732.099 31.2394 732.513 31.5415C732.926 31.8435 733.415 32.0269 733.925 32.0719L744.375 32.9754C744.375 32.9754 744.375 32.9859 744.375 32.9877L744.371 32.9806Z" fill="black"/>
<g clip-path="url(#clip0_62_2)">
<path d="M1050.49 39.7957C1049.96 39.3931 1049.36 39.1166 1048.71 38.9876C1048.06 38.8586 1047.39 38.8807 1046.75 39.0522L1039.4 40.7432C1039.57 40.0203 1039.58 39.2682 1039.41 38.543C1039.25 37.8178 1038.93 37.1385 1038.47 36.5559C1038.01 35.9734 1037.42 35.5026 1036.75 35.1791C1036.09 34.8555 1035.35 34.6874 1034.61 34.6875H1025.81C1025.07 34.6857 1024.34 34.8303 1023.66 35.113C1022.97 35.3957 1022.35 35.8109 1021.83 36.3346L1017.86 40.3125H1012.81C1012.07 40.3125 1011.35 40.6088 1010.82 41.1363C1010.3 41.6637 1010 42.3791 1010 43.125V50.1563C1010 50.9022 1010.3 51.6175 1010.82 52.145C1011.35 52.6724 1012.07 52.9688 1012.81 52.9688H1031.09C1031.21 52.9688 1031.32 52.9546 1031.43 52.9266L1042.68 50.1141C1042.76 50.097 1042.83 50.0735 1042.89 50.0438L1049.73 47.1363L1049.8 47.1012C1050.46 46.773 1051.02 46.2831 1051.44 45.6776C1051.85 45.0721 1052.11 44.3709 1052.18 43.6401C1052.25 42.9093 1052.13 42.1729 1051.83 41.5003C1051.54 40.8277 1051.08 40.2411 1050.49 39.7957H1050.49ZM1012.81 43.125H1017.03V50.1563H1012.81V43.125ZM1048.57 44.5682L1041.89 47.4123L1030.92 50.1563H1019.84V42.3006L1023.82 38.3244C1024.08 38.0621 1024.39 37.8542 1024.73 37.7126C1025.07 37.5711 1025.44 37.4988 1025.81 37.5H1034.61C1035.17 37.5 1035.71 37.7222 1036.1 38.1178C1036.5 38.5134 1036.72 39.0499 1036.72 39.6094C1036.72 40.1688 1036.5 40.7053 1036.1 41.1009C1035.71 41.4965 1035.17 41.7188 1034.61 41.7188H1029.69C1029.31 41.7188 1028.96 41.8669 1028.69 42.1306C1028.43 42.3944 1028.28 42.752 1028.28 43.125C1028.28 43.498 1028.43 43.8556 1028.69 44.1194C1028.96 44.3831 1029.31 44.5313 1029.69 44.5313H1035.31C1035.42 44.531 1035.52 44.5192 1035.63 44.4961L1047.4 41.7873L1047.46 41.7732C1047.82 41.6734 1048.2 41.7101 1048.54 41.8762C1048.87 42.0423 1049.13 42.3261 1049.27 42.673C1049.41 43.0199 1049.41 43.4054 1049.28 43.7552C1049.15 44.1051 1048.9 44.3946 1048.57 44.5682H1048.57ZM1038.83 31.875C1039.18 31.8754 1039.52 31.8472 1039.87 31.7906C1040.25 32.9359 1040.96 33.9469 1041.9 34.7039C1042.84 35.461 1043.98 35.9325 1045.18 36.0628C1046.38 36.193 1047.6 35.9766 1048.68 35.4389C1049.76 34.9013 1050.67 34.0651 1051.29 33.029C1051.91 31.993 1052.22 30.8005 1052.19 29.5925C1052.15 28.3845 1051.77 27.2116 1051.09 26.2124C1050.42 25.2132 1049.46 24.4295 1048.35 23.9539C1047.24 23.4784 1046.02 23.3309 1044.83 23.5289C1044.45 22.4254 1043.79 21.4458 1042.89 20.6977C1042 19.9497 1040.92 19.4623 1039.77 19.2891C1038.62 19.116 1037.44 19.2638 1036.37 19.7163C1035.3 20.1689 1034.37 20.9085 1033.69 21.854C1033.01 22.7995 1032.6 23.914 1032.52 25.075C1032.43 26.2361 1032.67 27.3985 1033.2 28.4345C1033.73 29.4705 1034.54 30.3398 1035.53 30.9468C1036.52 31.5538 1037.66 31.875 1038.83 31.875ZM1049.38 29.7656C1049.38 30.461 1049.17 31.1407 1048.78 31.7188C1048.4 32.2969 1047.85 32.7476 1047.2 33.0136C1046.56 33.2797 1045.86 33.3494 1045.17 33.2137C1044.49 33.0781 1043.87 32.7432 1043.37 32.2515C1042.88 31.7599 1042.55 31.1335 1042.41 30.4515C1042.28 29.7695 1042.35 29.0627 1042.61 28.4203C1042.88 27.7779 1043.33 27.2288 1043.91 26.8425C1044.48 26.4562 1045.16 26.25 1045.86 26.25C1046.79 26.25 1047.69 26.6204 1048.35 27.2797C1049 27.939 1049.38 28.8332 1049.38 29.7656ZM1038.83 22.0313C1039.6 22.0316 1040.34 22.2828 1040.95 22.7465C1041.56 23.2101 1042.01 23.8608 1042.21 24.5994C1041.49 25.1062 1040.89 25.7577 1040.43 26.5123C1039.98 27.2669 1039.69 28.1079 1039.58 28.9816C1039.33 29.0347 1039.08 29.0618 1038.83 29.0625C1037.9 29.0625 1037 28.6921 1036.34 28.0328C1035.68 27.3735 1035.31 26.4793 1035.31 25.5469C1035.31 24.6145 1035.68 23.7203 1036.34 23.061C1037 22.4016 1037.9 22.0313 1038.83 22.0313Z" fill="black"/>
</g>
<defs>
<clipPath id="clip0_62_2">
<rect width="45" height="45" fill="white" transform="translate(1010 15)"/>
</clipPath>
</defs>
</svg>
